<svg width="51" height="51" viewBox="0 0 51 51" fill="none" xmlns="http://www.w3.org/2000/svg">
<g clip-path="url(#clip0_103_323)">
<path d="M0.417969 44.4694C0.417969 48.0451 3.31647 50.9432 6.89178 50.9432H44.1514C47.7273 50.9432 50.6254 48.0447 50.6254 44.4694V7.20985C50.6254 3.63394 47.7269 0.73584 44.1516 0.73584H6.89198C3.31607 0.73584 0.417969 3.63434 0.417969 7.20965V44.4692V44.4694Z" fill="#563D7C"/>
<path d="M21.2382 22.9445V15.8344H27.4966C28.0928 15.8344 28.6675 15.8841 29.2209 15.9835C29.7744 16.0827 30.2641 16.26 30.6899 16.5156C31.1155 16.7711 31.4562 17.1259 31.7117 17.5799C31.967 18.0342 32.0949 18.6161 32.0949 19.3254C32.0949 20.6028 31.7117 21.5253 30.9453 22.0929C30.179 22.6607 29.1998 22.9445 28.0075 22.9445H21.2382V22.9445ZM14.5537 10.6401V41.0391H29.2849C30.6473 41.0391 31.9743 40.8689 33.2658 40.5282C34.5572 40.1876 35.7067 39.6626 36.7144 38.953C37.7219 38.2434 38.5238 37.3279 39.1198 36.2069C39.7161 35.0856 40.014 33.7587 40.014 32.226C40.014 30.3242 39.5527 28.6993 38.6303 27.3512C37.7078 26.0028 36.3098 25.0591 34.4364 24.5197C35.7989 23.867 36.8279 23.0296 37.5234 22.0078C38.2187 20.986 38.5664 19.7088 38.5664 18.176C38.5664 16.7568 38.3322 15.5648 37.8639 14.5997C37.3955 13.6347 36.7356 12.8612 35.884 12.2793C35.0326 11.6974 34.0108 11.2787 32.8186 11.0234C31.6266 10.7678 30.3067 10.6401 28.8591 10.6401H14.5537V10.6401ZM21.2382 35.8448V27.5H28.5184C29.966 27.5 31.1298 27.8334 32.0098 28.5006C32.8896 29.1676 33.3297 30.2816 33.3297 31.8428C33.3297 32.6376 33.1948 33.2903 32.9251 33.8012C32.6554 34.3121 32.2936 34.7167 31.8394 35.0146C31.3854 35.3128 30.8601 35.5255 30.2641 35.6534C29.6679 35.7809 29.0436 35.8448 28.3908 35.8448H21.2382V35.8448Z" fill="white"/>
</g>
<defs>
<clipPath id="clip0_103_323">
<rect width="50.2074" height="50.2074" fill="white" transform="translate(0.417969 0.73584)"/>
</clipPath>
</defs>
</svg>
