<svg width="51" height="51" viewBox="0 0 51 51" fill="none" xmlns="http://www.w3.org/2000/svg">
<path d="M9.65284 43.4137L6.12891 3.87378H44.8639L41.3353 43.4074L25.4729 47.8052L9.65284 43.4137Z" fill="#1572B6"/>
<path d="M25.4961 44.4445L38.3147 40.8907L41.3303 7.10742H25.4961V44.4445Z" fill="#33A9DC"/>
<path d="M25.4961 21.4322H31.9132L32.3557 16.4664H25.4961V11.6167H37.6557L37.5396 12.9174L36.3487 26.282H25.4961V21.4322V21.4322Z" fill="white"/>
<path d="M25.5258 34.0265L25.5038 34.0327L20.1034 32.5736L19.7582 28.7061H14.8896L15.569 36.3203L25.5022 39.0786L25.5258 39.0723V34.0265V34.0265Z" fill="#EBEBEB"/>
<path d="M31.5007 26.0764L30.9171 32.5704L25.5088 34.0296V39.0754L35.4499 36.3203L35.5236 35.5013L36.3661 26.0764H31.5007V26.0764Z" fill="white"/>
<path d="M25.5139 11.6167V16.4664H13.7998L13.7026 15.376L13.4813 12.9174L13.3652 11.6167H25.5139V11.6167ZM25.4966 21.4322V26.282H20.1636L20.0664 25.1915L19.8467 22.7329L19.7306 21.4322H25.4966V21.4322Z" fill="#EBEBEB"/>
</svg>
