<svg width="51" height="51" viewBox="0 0 51 51" fill="none" xmlns="http://www.w3.org/2000/svg">
<g clip-path="url(#clip0_103_249)">
<path d="M16.4814 48.7358C20.8974 48.7358 24.4814 45.1518 24.4814 40.7358V32.7358H16.4814C12.0654 32.7358 8.48145 36.3198 8.48145 40.7358C8.48145 45.1518 12.0654 48.7358 16.4814 48.7358Z" fill="#0ACF83"/>
<path d="M8.48145 24.7358C8.48145 20.3198 12.0654 16.7358 16.4814 16.7358H24.4814V32.7358H16.4814C12.0654 32.7358 8.48145 29.1518 8.48145 24.7358Z" fill="#A259FF"/>
<path d="M8.48145 8.73584C8.48145 4.31984 12.0654 0.73584 16.4814 0.73584H24.4814V16.7358H16.4814C12.0654 16.7358 8.48145 13.1518 8.48145 8.73584Z" fill="#F24E1E"/>
<path d="M24.4814 0.73584H32.4814C36.8974 0.73584 40.4814 4.31984 40.4814 8.73584C40.4814 13.1518 36.8974 16.7358 32.4814 16.7358H24.4814V0.73584Z" fill="#FF7262"/>
<path d="M40.4814 24.7358C40.4814 29.1518 36.8974 32.7358 32.4814 32.7358C28.0654 32.7358 24.4814 29.1518 24.4814 24.7358C24.4814 20.3198 28.0654 16.7358 32.4814 16.7358C36.8974 16.7358 40.4814 20.3198 40.4814 24.7358Z" fill="#1ABCFE"/>
</g>
<defs>
<clipPath id="clip0_103_249">
<rect width="32" height="48" fill="white" transform="translate(8.48145 0.73584)"/>
</clipPath>
</defs>
</svg>
