<svg width="51" height="51" viewBox="0 0 51 51" fill="none" xmlns="http://www.w3.org/2000/svg">
<g clip-path="url(#clip0_103_345)">
<path fill-rule="evenodd" clip-rule="evenodd" d="M25.5724 0.73584C11.7027 0.73584 0.46875 11.9697 0.46875 25.8395C0.46875 36.9479 7.65468 46.3304 17.6334 49.6567C18.8886 49.8763 19.3593 49.1232 19.3593 48.4642C19.3593 47.868 19.3279 45.8911 19.3279 43.7887C13.0206 44.9497 11.3889 42.2511 10.8868 40.839C10.6044 40.1173 9.38056 37.8893 8.31366 37.2931C7.43503 36.8224 6.17984 35.6614 8.28228 35.63C10.2592 35.5986 11.6713 37.45 12.142 38.2031C14.4013 42 18.01 40.9331 19.4534 40.2742C19.6731 38.6424 20.3321 37.5441 21.0538 36.9165C15.4682 36.289 9.6316 34.1238 9.6316 24.5216C9.6316 21.7916 10.6044 19.5322 12.2047 17.775C11.9537 17.1474 11.0751 14.5743 12.4558 11.1225C12.4558 11.1225 14.5582 10.4635 19.3593 13.6956C21.3676 13.1308 23.5014 12.8484 25.6352 12.8484C27.769 12.8484 29.9028 13.1308 31.9111 13.6956C36.7122 10.4321 38.8147 11.1225 38.8147 11.1225C40.1954 14.5743 39.3167 17.1474 39.0657 17.775C40.6661 19.5322 41.6388 21.7602 41.6388 24.5216C41.6388 34.1551 35.7708 36.289 30.1853 36.9165C31.0953 37.701 31.8798 39.2073 31.8798 41.5607C31.8798 44.9183 31.8484 47.617 31.8484 48.4642C31.8484 49.1232 32.3191 49.9077 33.5743 49.6567C38.5577 47.9741 42.8881 44.7712 45.956 40.4988C49.0238 36.2263 50.6746 31.0994 50.6761 25.8395C50.6761 11.9697 39.4422 0.73584 25.5724 0.73584Z" fill="white"/>
</g>
<defs>
<clipPath id="clip0_103_345">
<rect width="50.2074" height="50.2074" fill="white" transform="translate(0.46875 0.73584)"/>
</clipPath>
</defs>
</svg>
