<svg width="51" height="51" viewBox="0 0 51 51" fill="none" xmlns="http://www.w3.org/2000/svg">
<path d="M9.63976 43.4137L6.11426 3.87378H44.8524L41.3222 43.4074L25.4598 47.8052L9.63976 43.4137Z" fill="#E44F26"/>
<path d="M25.4834 44.4445L38.302 40.8907L41.3176 7.10742H25.4834V44.4445Z" fill="#F1662A"/>
<path d="M25.4838 21.7711H19.0667L18.6242 16.8053H25.4838V11.9556H13.3242L13.4403 13.2578L14.6312 26.6208H25.4838V21.7711V21.7711ZM25.4838 34.3653L25.4619 34.3716L20.0614 32.914L19.7162 29.0465H14.8477L15.5271 36.6592L25.4619 39.4174L25.4838 39.4112V34.3653Z" fill="#EBEBEB"/>
<path d="M25.4668 21.7711V26.6208H31.4383L30.8766 32.9109L25.4668 34.37V39.4159L35.4094 36.6592L35.4816 35.8402L36.6207 23.0734L36.7399 21.7711H25.4668V21.7711ZM25.4668 11.9556V16.8053H37.1808L37.2781 15.7164L37.4993 13.2578L37.6154 11.9556H25.4668V11.9556Z" fill="white"/>
</svg>
