<svg width="51" height="51" viewBox="0 0 51 51" fill="none" xmlns="http://www.w3.org/2000/svg">
<g clip-path="url(#clip0_103_329)">
<path d="M0.430664 0.73584H50.6381V50.9432H0.430664V0.73584Z" fill="#F7DF1E"/>
<path d="M13.632 42.6928L17.4741 40.3676C18.2154 41.6818 18.8897 42.7938 20.5071 42.7938C22.0575 42.7938 23.0351 42.1874 23.0351 39.8284V23.786H27.7533V39.8951C27.7533 44.7819 24.8887 47.0063 20.7093 47.0063C16.9349 47.0063 14.744 45.0516 13.6318 42.6924L13.632 42.6928ZM30.316 42.1872L34.1576 39.963C35.169 41.6145 36.4835 42.8277 38.8087 42.8277C40.7638 42.8277 42.0104 41.8502 42.0104 40.5021C42.0104 38.8845 40.7297 38.3114 38.5728 37.3681L37.3935 36.8621C33.9894 35.4133 31.7314 33.5933 31.7314 29.7512C31.7314 26.2124 34.4275 23.5161 38.6404 23.5161C41.6399 23.5161 43.7969 24.5611 45.347 27.2909L41.6733 29.6502C40.8642 28.2011 39.9884 27.6282 38.6402 27.6282C37.2583 27.6282 36.3821 28.5045 36.3821 29.6502C36.3821 31.0657 37.2583 31.6389 39.2804 32.5152L40.4598 33.0206C44.4705 34.7396 46.7285 36.492 46.7285 40.4348C46.7285 44.6817 43.3921 47.0069 38.9097 47.0069C34.5285 47.0069 31.6975 44.9174 30.3158 42.1874" fill="black"/>
</g>
<defs>
<clipPath id="clip0_103_329">
<rect width="50.2074" height="50.2074" fill="white" transform="translate(0.430664 0.73584)"/>
</clipPath>
</defs>
</svg>
