<svg width="51" height="51" viewBox="0 0 51 51" fill="none" xmlns="http://www.w3.org/2000/svg">
<g clip-path="url(#clip0_103_417)">
<path d="M41.7079 27.4573C40.038 27.4659 38.5866 27.8681 37.3714 28.4626C36.9253 27.5795 36.4794 26.7928 36.4009 26.2156C36.3133 25.5425 36.2085 25.1315 36.3133 24.3272C36.4183 23.5228 36.8904 22.3773 36.8816 22.29C36.873 22.2026 36.7766 21.7916 35.8149 21.783C34.8532 21.7741 34.0226 21.9665 33.9264 22.22C33.8302 22.4735 33.6467 23.0506 33.5242 23.645C33.3581 24.5195 31.6009 27.6406 30.5955 29.2756C30.2719 28.6376 29.9921 28.0779 29.9308 27.632C29.8434 26.9589 29.7384 26.5479 29.8434 25.7435C29.9484 24.9391 30.4206 23.7939 30.4117 23.7063C30.4029 23.619 30.3067 23.208 29.3451 23.1993C28.3832 23.1905 27.5526 23.3829 27.4566 23.6364C27.3604 23.8901 27.2554 24.4845 27.0544 25.0616C26.8532 25.6387 24.5188 30.8497 23.9068 32.196C23.6595 32.7409 23.4 33.2802 23.1287 33.8135C23.1287 33.8135 23.1199 33.8398 23.0936 33.8835C23.0084 34.0507 22.921 34.2168 22.8315 34.3818V34.3905C22.7002 34.6267 22.5604 34.8451 22.4904 34.8451C22.4379 34.8451 22.3417 34.2157 22.5079 33.3588C22.8575 31.5491 23.6882 28.7338 23.6796 28.6376C23.6796 28.5851 23.8369 28.0955 23.1375 27.8418C22.4554 27.5883 22.2107 28.008 22.1494 28.008C22.0882 28.008 22.0444 28.1566 22.0444 28.1566C22.0444 28.1566 22.8052 24.9916 20.5931 24.9916C19.2118 24.9916 17.3057 26.5042 16.3614 27.8681C15.288 28.4522 14.2155 29.038 13.1439 29.6255C12.6283 29.9141 12.0949 30.2026 11.5965 30.4736C11.5614 30.4387 11.5266 30.3948 11.4915 30.36C8.81605 27.501 3.86755 25.4812 4.07736 21.6431C4.15611 20.2441 4.63686 16.572 13.5812 12.113C20.9428 8.48453 26.8009 9.4899 27.8151 11.7195C29.2663 14.9021 24.6763 20.8125 17.0696 21.6691C14.1669 21.9928 12.6456 20.8736 12.261 20.454C11.8588 20.0167 11.7975 19.9905 11.6488 20.078C11.4041 20.2093 11.5614 20.6026 11.6488 20.8299C11.8762 21.4243 12.8117 22.4735 14.3942 22.9895C15.7931 23.444 19.1942 23.6977 23.3122 22.1064C27.9199 20.3227 31.5221 15.3654 30.4642 11.2125C29.4062 6.99821 22.4117 5.60809 15.7931 7.9599C11.8588 9.35903 7.59205 11.5622 4.52324 14.43C0.877301 17.8397 0.300176 20.8036 0.536238 22.0453C1.38449 26.4517 7.46099 29.3195 9.89155 31.4441C9.76911 31.514 9.6553 31.5753 9.5593 31.6278C8.34393 32.231 3.71005 34.6528 2.55599 37.2146C1.24461 40.1173 2.76599 42.1983 3.77136 42.4779C6.89268 43.3436 10.1014 41.7873 11.8237 39.2167C13.5461 36.6463 13.3363 33.3063 12.5407 31.7763C12.5319 31.7589 12.5233 31.7413 12.5057 31.7238C12.8205 31.5403 13.1439 31.3479 13.4587 31.1643C14.0373 30.8223 14.6233 30.4928 15.2162 30.1762C14.9188 30.9894 14.7002 31.9599 14.5954 33.3588C14.4641 35.0026 15.1372 37.1358 16.0204 37.9751C16.4139 38.3426 16.8772 38.3512 17.1746 38.3512C18.2062 38.3512 18.6697 37.4943 19.1856 36.4801C19.815 35.2387 20.3833 33.7961 20.3833 33.7961C20.3833 33.7961 19.6751 37.6955 21.5987 37.6955C22.298 37.6955 23.0062 36.7861 23.3211 36.3228V36.3315C23.3211 36.3315 23.3385 36.3052 23.3736 36.2441C23.4435 36.1305 23.4872 36.0603 23.4872 36.0603V36.0431C23.7669 35.5533 24.3965 34.443 25.332 32.5981C26.5385 30.2201 27.7014 27.2475 27.7014 27.2475C27.7014 27.2475 27.8064 27.9731 28.1647 29.1796C28.3747 29.8878 28.8116 30.666 29.1615 31.4178C28.8817 31.8114 28.7068 32.0298 28.7068 32.0298L28.7156 32.0386C28.4882 32.3358 28.2435 32.6593 27.9724 32.9743C27.0193 34.1107 25.8829 35.4136 25.7254 35.7894C25.5416 36.2353 25.5855 36.5589 25.9354 36.8212C26.1889 37.0136 26.6434 37.0396 27.1069 37.0136C27.9637 36.9523 28.5669 36.7425 28.8641 36.6114C29.3276 36.4453 29.8697 36.1916 30.3767 35.8156C31.3123 35.1249 31.8804 34.137 31.8281 32.8344C31.8019 32.1174 31.5658 31.4004 31.2772 30.7271C31.3648 30.6048 31.4434 30.4824 31.5309 30.36C33.0084 28.2003 34.1539 25.8309 34.1539 25.8309C34.1539 25.8309 34.2589 26.5565 34.6172 27.7633C34.7921 28.3753 35.1506 29.0398 35.4652 29.6866C34.0751 30.8146 33.2182 32.126 32.9122 32.9829C32.3616 34.5742 32.7898 35.291 33.603 35.4571C33.9701 35.5359 34.4947 35.361 34.8795 35.1948C35.3691 35.0375 35.9462 34.7666 36.4971 34.3642C37.4327 33.6736 38.333 32.7118 38.2806 31.4092C38.2543 30.8146 38.097 30.2287 37.8784 29.6604C39.0587 29.171 40.5801 28.8999 42.5209 29.1271C46.6828 29.6167 47.5046 32.2134 47.3471 33.3065C47.1898 34.3993 46.3155 34.9938 46.0271 35.1774C45.7384 35.3611 45.6424 35.4223 45.6686 35.5533C45.7035 35.7457 45.8434 35.7371 46.0882 35.702C46.4293 35.6409 48.2741 34.8189 48.3527 32.808C48.4839 30.2375 46.0357 27.431 41.7079 27.4573ZM9.60299 38.2813C8.22149 39.785 6.29811 40.3533 5.46749 39.8726C4.57574 39.3566 4.92543 37.1358 6.62155 35.5447C7.65318 34.5742 8.98218 33.6735 9.8653 33.1228C10.0663 33.0003 10.3637 32.8256 10.7222 32.607C10.7833 32.5719 10.8184 32.5545 10.8184 32.5545L11.0282 32.4232C11.6488 34.6965 11.0544 36.6988 9.60299 38.2813ZM19.6577 31.4441C19.1767 32.6158 18.1714 35.6146 17.5594 35.4485C17.0347 35.3086 16.7111 33.0354 17.4544 30.7884C17.8303 29.6604 18.6259 28.314 19.0894 27.7895C19.8412 26.9501 20.6719 26.6701 20.8729 27.0114C21.1266 27.4573 19.9549 30.7096 19.6577 31.4441ZM27.9549 35.4135C27.7537 35.5185 27.5616 35.5884 27.474 35.5359C27.4129 35.5008 27.5616 35.361 27.5616 35.361C27.5616 35.361 28.602 34.242 29.0128 33.7348C29.2491 33.4376 29.5286 33.0879 29.826 32.6943V32.808C29.826 34.1458 28.5319 35.0463 27.9547 35.4135H27.9549ZM34.3549 33.9534C34.2062 33.8484 34.2324 33.4987 34.7308 32.4058C34.9232 31.9773 35.3777 31.2605 36.156 30.5698C36.2434 30.8495 36.3047 31.1206 36.2959 31.3741C36.2871 33.0616 35.0807 33.6911 34.3549 33.9534Z" fill="#CD6799"/>
</g>
<defs>
<clipPath id="clip0_103_417">
<rect width="48" height="36" fill="white" transform="translate(0.405273 6.73584)"/>
</clipPath>
</defs>
</svg>
