<svg width="159" height="157" viewBox="0 0 159 157" fill="none" xmlns="http://www.w3.org/2000/svg">
<g filter="url(#filter0_d_11_1004)">
<rect x="25" y="10" width="109" height="107" rx="8" fill="#33333D"/>
</g>
<path d="M55 67.8108C55 71.2293 57.7711 74 61.1892 74H96.8106C100.229 74 103 71.2289 103 67.8108V32.1894C103 28.7707 100.229 26 96.8108 26H61.1894C57.7707 26 55 28.7711 55 32.1892V67.8106V67.8108Z" fill="#563D7C"/>
<path d="M74.9047 47.2321V40.4347H80.888C81.458 40.4347 82.0074 40.4821 82.5365 40.5772C83.0657 40.6721 83.5338 40.8416 83.9409 41.0859C84.3478 41.3302 84.6735 41.6694 84.9178 42.1034C85.1619 42.5377 85.2842 43.094 85.2842 43.7722C85.2842 44.9934 84.9178 45.8754 84.185 46.418C83.4525 46.9608 82.5163 47.2321 81.3765 47.2321H74.9047V47.2321ZM68.5142 35.4688V64.5312H82.5977C83.9002 64.5312 85.1688 64.3685 86.4035 64.0428C87.6382 63.7171 88.7372 63.2152 89.7005 62.5368C90.6637 61.8584 91.4304 60.9832 92.0002 59.9114C92.5702 58.8395 92.855 57.5709 92.855 56.1056C92.855 54.2874 92.414 52.7339 91.5322 51.4451C90.6502 50.156 89.3137 49.2537 87.5227 48.7381C88.8253 48.1141 89.8091 47.3135 90.474 46.3366C91.1387 45.3597 91.4711 44.1388 91.4711 42.6733C91.4711 41.3165 91.2472 40.1769 90.7995 39.2542C90.3517 38.3317 89.7208 37.5922 88.9067 37.0359C88.0927 36.4796 87.1158 36.0792 85.976 35.8351C84.8364 35.5908 83.5745 35.4688 82.1906 35.4688H68.5142V35.4688ZM74.9047 59.5653V51.5874H81.8649C83.2488 51.5874 84.3615 51.9061 85.2028 52.544C86.0439 53.1817 86.4647 54.2467 86.4647 55.7392C86.4647 56.4991 86.3357 57.1231 86.0778 57.6116C85.82 58.1 85.4741 58.4868 85.0398 58.7716C84.6058 59.0566 84.1037 59.2601 83.5338 59.3823C82.9638 59.5042 82.367 59.5653 81.7428 59.5653H74.9047V59.5653Z" fill="white"/>
<path d="M53.2899 87.004C54.1393 87.004 54.8486 87.0833 55.4179 87.242C55.9966 87.4007 56.4306 87.6667 56.7199 88.04C57.0186 88.404 57.1679 88.8893 57.1679 89.496C57.1679 89.888 57.0979 90.238 56.9579 90.546C56.8179 90.8447 56.6126 91.0967 56.3419 91.302C56.0806 91.498 55.7539 91.6287 55.3619 91.694V91.764C55.7633 91.8293 56.1226 91.9507 56.4399 92.128C56.7573 92.296 57.0093 92.5433 57.1959 92.87C57.3826 93.1967 57.4759 93.6213 57.4759 94.144C57.4759 94.7507 57.3313 95.2687 57.0419 95.698C56.7619 96.118 56.3559 96.44 55.8239 96.664C55.3013 96.888 54.6759 97 53.9479 97H50.3639V87.004H53.2899ZM53.5419 91.176C54.3259 91.176 54.8626 91.05 55.1519 90.798C55.4506 90.546 55.5999 90.1727 55.5999 89.678C55.5999 89.174 55.4226 88.8147 55.0679 88.6C54.7133 88.3853 54.1486 88.278 53.3739 88.278H51.8759V91.176H53.5419ZM51.8759 92.408V95.74H53.7099C54.5219 95.74 55.0866 95.5813 55.4039 95.264C55.7213 94.9467 55.8799 94.5267 55.8799 94.004C55.8799 93.6867 55.8099 93.4067 55.6699 93.164C55.5299 92.9213 55.2919 92.7347 54.9559 92.604C54.6293 92.4733 54.1813 92.408 53.6119 92.408H51.8759ZM66.0544 93.22C66.0544 93.8453 65.9704 94.4007 65.8024 94.886C65.6344 95.3713 65.3964 95.782 65.0884 96.118C64.7804 96.454 64.4071 96.7107 63.9684 96.888C63.5298 97.056 63.0351 97.14 62.4844 97.14C61.9804 97.14 61.5138 97.056 61.0844 96.888C60.6551 96.7107 60.2818 96.454 59.9644 96.118C59.6564 95.782 59.4138 95.3713 59.2364 94.886C59.0591 94.4007 58.9704 93.8407 58.9704 93.206C58.9704 92.3753 59.1104 91.6707 59.3904 91.092C59.6798 90.5133 60.0904 90.0747 60.6224 89.776C61.1638 89.468 61.7984 89.314 62.5264 89.314C63.2171 89.314 63.8238 89.468 64.3464 89.776C64.8784 90.0747 65.2938 90.5133 65.5924 91.092C65.9004 91.6707 66.0544 92.38 66.0544 93.22ZM60.4964 93.22C60.4964 93.78 60.5664 94.2653 60.7064 94.676C60.8464 95.0773 61.0658 95.3853 61.3644 95.6C61.6631 95.8147 62.0458 95.922 62.5124 95.922C62.9791 95.922 63.3618 95.8147 63.6604 95.6C63.9591 95.3853 64.1784 95.0773 64.3184 94.676C64.4584 94.2653 64.5284 93.78 64.5284 93.22C64.5284 92.6413 64.4538 92.156 64.3044 91.764C64.1644 91.372 63.9451 91.0733 63.6464 90.868C63.3571 90.6533 62.9744 90.546 62.4984 90.546C61.7984 90.546 61.2898 90.7793 60.9724 91.246C60.6551 91.7127 60.4964 92.3707 60.4964 93.22ZM74.6067 93.22C74.6067 93.8453 74.5227 94.4007 74.3547 94.886C74.1867 95.3713 73.9487 95.782 73.6407 96.118C73.3327 96.454 72.9593 96.7107 72.5207 96.888C72.082 97.056 71.5873 97.14 71.0367 97.14C70.5327 97.14 70.066 97.056 69.6367 96.888C69.2073 96.7107 68.834 96.454 68.5167 96.118C68.2087 95.782 67.966 95.3713 67.7887 94.886C67.6113 94.4007 67.5227 93.8407 67.5227 93.206C67.5227 92.3753 67.6627 91.6707 67.9427 91.092C68.232 90.5133 68.6427 90.0747 69.1747 89.776C69.716 89.468 70.3507 89.314 71.0787 89.314C71.7693 89.314 72.376 89.468 72.8987 89.776C73.4307 90.0747 73.846 90.5133 74.1447 91.092C74.4527 91.6707 74.6067 92.38 74.6067 93.22ZM69.0487 93.22C69.0487 93.78 69.1187 94.2653 69.2587 94.676C69.3987 95.0773 69.618 95.3853 69.9167 95.6C70.2153 95.8147 70.598 95.922 71.0647 95.922C71.5313 95.922 71.914 95.8147 72.2127 95.6C72.5113 95.3853 72.7307 95.0773 72.8707 94.676C73.0107 94.2653 73.0807 93.78 73.0807 93.22C73.0807 92.6413 73.006 92.156 72.8567 91.764C72.7167 91.372 72.4973 91.0733 72.1987 90.868C71.9093 90.6533 71.5267 90.546 71.0507 90.546C70.3507 90.546 69.842 90.7793 69.5247 91.246C69.2073 91.7127 69.0487 92.3707 69.0487 93.22ZM81.5209 94.872C81.5209 95.3667 81.3996 95.782 81.1569 96.118C80.9143 96.454 80.5643 96.7107 80.1069 96.888C79.6496 97.056 79.0989 97.14 78.4549 97.14C77.9229 97.14 77.4656 97.098 77.0829 97.014C76.7096 96.9393 76.3643 96.8273 76.0469 96.678V95.376C76.3829 95.5347 76.7703 95.6793 77.2089 95.81C77.6476 95.9313 78.0769 95.992 78.4969 95.992C79.0569 95.992 79.4583 95.9033 79.7009 95.726C79.9529 95.5487 80.0789 95.3107 80.0789 95.012C80.0789 94.844 80.0323 94.6947 79.9389 94.564C79.8456 94.424 79.6683 94.284 79.4069 94.144C79.1549 93.9947 78.7816 93.8267 78.2869 93.64C77.8109 93.444 77.4049 93.2527 77.0689 93.066C76.7329 92.87 76.4763 92.6413 76.2989 92.38C76.1216 92.1093 76.0329 91.764 76.0329 91.344C76.0329 90.6907 76.2943 90.1913 76.8169 89.846C77.3489 89.4913 78.0489 89.314 78.9169 89.314C79.3743 89.314 79.8036 89.3607 80.2049 89.454C80.6156 89.538 81.0123 89.6687 81.3949 89.846L80.9049 90.98C80.6903 90.8773 80.4663 90.7933 80.2329 90.728C80.0089 90.6533 79.7803 90.5927 79.5469 90.546C79.3229 90.4993 79.0896 90.476 78.8469 90.476C78.3989 90.476 78.0583 90.546 77.8249 90.686C77.5916 90.826 77.4749 91.022 77.4749 91.274C77.4749 91.4513 77.5263 91.6053 77.6289 91.736C77.7409 91.8667 77.9323 91.9973 78.2029 92.128C78.4736 92.2587 78.8423 92.4173 79.3089 92.604C79.7756 92.7813 80.1723 92.9633 80.4989 93.15C80.8349 93.3367 81.0869 93.5653 81.2549 93.836C81.4323 94.1067 81.5209 94.452 81.5209 94.872ZM86.0272 95.936C86.2232 95.936 86.4238 95.9173 86.6292 95.88C86.8345 95.8427 87.0118 95.8007 87.1612 95.754V96.874C87.0025 96.9487 86.7878 97.0093 86.5172 97.056C86.2465 97.112 85.9758 97.14 85.7052 97.14C85.2945 97.14 84.9165 97.07 84.5712 96.93C84.2352 96.79 83.9645 96.5473 83.7592 96.202C83.5538 95.8567 83.4512 95.376 83.4512 94.76V90.588H82.4012V89.916L83.5072 89.356L84.0252 87.76H84.9352V89.454H87.0912V90.588H84.9352V94.732C84.9352 95.1427 85.0332 95.446 85.2292 95.642C85.4345 95.838 85.7005 95.936 86.0272 95.936ZM92.4155 89.314C92.5462 89.314 92.6909 89.3233 92.8495 89.342C93.0082 89.3513 93.1389 89.3653 93.2415 89.384L93.0875 90.77C92.9849 90.742 92.8635 90.7187 92.7235 90.7C92.5835 90.6813 92.4529 90.672 92.3315 90.672C92.0515 90.672 91.7809 90.728 91.5195 90.84C91.2675 90.9427 91.0389 91.0967 90.8335 91.302C90.6282 91.498 90.4649 91.7407 90.3435 92.03C90.2315 92.3193 90.1755 92.6507 90.1755 93.024V97H88.6915V89.454H89.8675L90.0635 90.798H90.1195C90.2782 90.5273 90.4695 90.28 90.6935 90.056C90.9175 89.832 91.1742 89.6547 91.4635 89.524C91.7529 89.384 92.0702 89.314 92.4155 89.314ZM97.3124 89.314C98.2644 89.314 98.9737 89.524 99.4404 89.944C99.907 90.3547 100.14 91.0033 100.14 91.89V97H99.0904L98.7964 95.95H98.7404C98.5257 96.2207 98.3017 96.4447 98.0684 96.622C97.8444 96.7993 97.583 96.93 97.2844 97.014C96.995 97.098 96.6404 97.14 96.2204 97.14C95.7724 97.14 95.3664 97.0607 95.0024 96.902C94.6477 96.734 94.3677 96.482 94.1624 96.146C93.957 95.8007 93.8544 95.3713 93.8544 94.858C93.8544 94.0927 94.1437 93.5093 94.7224 93.108C95.3104 92.7067 96.2017 92.4873 97.3964 92.45L98.6844 92.408V91.988C98.6844 91.428 98.5584 91.036 98.3064 90.812C98.0544 90.588 97.6997 90.476 97.2424 90.476C96.8504 90.476 96.477 90.532 96.1224 90.644C95.7677 90.756 95.4317 90.8913 95.1144 91.05L94.6384 89.972C94.993 89.7853 95.399 89.6313 95.8564 89.51C96.323 89.3793 96.8084 89.314 97.3124 89.314ZM97.6624 93.402C96.8037 93.4393 96.2064 93.584 95.8704 93.836C95.5437 94.0787 95.3804 94.424 95.3804 94.872C95.3804 95.264 95.497 95.5487 95.7304 95.726C95.973 95.9033 96.2764 95.992 96.6404 95.992C97.2284 95.992 97.7137 95.8287 98.0964 95.502C98.479 95.1753 98.6704 94.6853 98.6704 94.032V93.374L97.6624 93.402ZM106.212 89.314C107.118 89.314 107.846 89.6407 108.396 90.294C108.956 90.9473 109.236 91.9227 109.236 93.22C109.236 94.0693 109.11 94.788 108.858 95.376C108.606 95.964 108.252 96.4073 107.794 96.706C107.337 96.9953 106.805 97.14 106.198 97.14C105.816 97.14 105.48 97.0933 105.19 97C104.901 96.8973 104.654 96.7667 104.448 96.608C104.252 96.44 104.08 96.2627 103.93 96.076H103.832C103.86 96.244 103.884 96.4447 103.902 96.678C103.921 96.902 103.93 97.1027 103.93 97.28V100.36H102.446V89.454H103.65L103.86 90.462H103.93C104.08 90.2567 104.257 90.0653 104.462 89.888C104.668 89.7107 104.915 89.5707 105.204 89.468C105.494 89.3653 105.83 89.314 106.212 89.314ZM105.862 90.532C105.396 90.532 105.022 90.6253 104.742 90.812C104.462 90.9893 104.257 91.26 104.126 91.624C104.005 91.9787 103.94 92.4313 103.93 92.982V93.206C103.93 93.7847 103.991 94.2793 104.112 94.69C104.234 95.0913 104.434 95.3993 104.714 95.614C105.004 95.8193 105.396 95.922 105.89 95.922C106.31 95.922 106.651 95.81 106.912 95.586C107.183 95.3527 107.384 95.0307 107.514 94.62C107.645 94.2093 107.71 93.7333 107.71 93.192C107.71 92.3707 107.561 91.722 107.262 91.246C106.964 90.77 106.497 90.532 105.862 90.532Z" fill="white"/>
<defs>
<filter id="filter0_d_11_1004" x="0" y="0" width="159" height="157" filterUnits="userSpaceOnUse" color-interpolation-filters="sRGB">
<feFlood flood-opacity="0" result="BackgroundImageFix"/>
<feColorMatrix in="SourceAlpha" type="matrix" values="0 0 0 0 0 0 0 0 0 0 0 0 0 0 0 0 0 0 127 0" result="hardAlpha"/>
<feOffset dy="15"/>
<feGaussianBlur stdDeviation="12.5"/>
<feComposite in2="hardAlpha" operator="out"/>
<feColorMatrix type="matrix" values="0 0 0 0 0 0 0 0 0 0 0 0 0 0 0 0 0 0 0.25 0"/>
<feBlend mode="normal" in2="BackgroundImageFix" result="effect1_dropShadow_11_1004"/>
<feBlend mode="normal" in="SourceGraphic" in2="effect1_dropShadow_11_1004" result="shape"/>
</filter>
</defs>
</svg>
