<svg width="165" height="162" viewBox="0 0 165 162" fill="none" xmlns="http://www.w3.org/2000/svg">
<g filter="url(#filter0_d_98_673)">
<rect x="25" y="10" width="114.013" height="111.921" rx="8" fill="#33333D"/>
</g>
<path d="M65.6398 69.4137L62.1143 29.8738H100.852L97.3222 69.4074L81.4598 73.8052L65.6398 69.4137Z" fill="#E44F26"/>
<path d="M81.4834 70.4445L94.302 66.8907L97.3176 33.1074H81.4834V70.4445Z" fill="#F1662A"/>
<path d="M81.4838 47.7711H75.0667L74.6242 42.8053H81.4838V37.9556H69.3242L69.4403 39.2578L70.6312 52.6208H81.4838V47.7711ZM81.4838 60.3653L81.4619 60.3716L76.0614 58.914L75.7162 55.0465H70.8477L71.5271 62.6592L81.4619 65.4174L81.4838 65.4112V60.3653Z" fill="#EBEBEB"/>
<path d="M81.4668 47.7711V52.6208H87.4383L86.8766 58.9109L81.4668 60.37V65.4159L91.4094 62.6592L91.4816 61.8402L92.6207 49.0734L92.7399 47.7711H81.4668ZM81.4668 37.9556V42.8053H93.1808L93.2781 41.7164L93.4993 39.2578L93.6154 37.9556H81.4668Z" fill="white"/>
<path d="M67.3243 100.311H65.8123V95.747H61.0383V100.311H59.5263V90.315H61.0383V94.459H65.8123V90.315H67.3243V100.311ZM73.3799 100.311H71.8679V91.617H68.8719V90.315H76.3759V91.617H73.3799V100.311ZM82.2836 100.311L79.2596 91.813H79.2036C79.2129 91.9997 79.2269 92.2517 79.2456 92.569C79.2643 92.8864 79.2783 93.227 79.2876 93.591C79.2969 93.955 79.3016 94.3144 79.3016 94.669V100.311H77.9296V90.315H80.0856L82.9556 98.337H83.0116L85.9656 90.315H88.1216V100.311H86.6516V94.585C86.6516 94.2584 86.6563 93.9224 86.6656 93.577C86.6843 93.2224 86.6983 92.891 86.7076 92.583C86.7263 92.275 86.7403 92.023 86.7496 91.827H86.6936L83.5856 100.311H82.2836ZM90.8022 100.311V90.315H92.3142V99.009H96.5842V100.311H90.8022ZM100.947 94.109C101.61 94.109 102.188 94.2257 102.683 94.459C103.178 94.6924 103.56 95.0284 103.831 95.467C104.111 95.9057 104.251 96.4424 104.251 97.077C104.251 97.777 104.102 98.379 103.803 98.883C103.504 99.387 103.07 99.7744 102.501 100.045C101.941 100.316 101.255 100.451 100.443 100.451C99.9297 100.451 99.4444 100.404 98.987 100.311C98.5297 100.218 98.1424 100.082 97.825 99.905V98.547C98.161 98.743 98.567 98.9017 99.043 99.023C99.5284 99.1444 99.9904 99.205 100.429 99.205C100.905 99.205 101.311 99.135 101.647 98.995C101.992 98.8457 102.258 98.6264 102.445 98.337C102.641 98.0384 102.739 97.665 102.739 97.217C102.739 96.6104 102.548 96.1484 102.165 95.831C101.792 95.5044 101.199 95.341 100.387 95.341C100.126 95.341 99.8317 95.3644 99.505 95.411C99.1877 95.4577 98.931 95.5044 98.735 95.551L98.049 95.145L98.427 90.315H103.565V91.631H99.715L99.491 94.249C99.6497 94.221 99.8504 94.193 100.093 94.165C100.336 94.1277 100.62 94.109 100.947 94.109Z" fill="white"/>
<defs>
<filter id="filter0_d_98_673" x="0" y="0" width="164.013" height="161.921" filterUnits="userSpaceOnUse" color-interpolation-filters="sRGB">
<feFlood flood-opacity="0" result="BackgroundImageFix"/>
<feColorMatrix in="SourceAlpha" type="matrix" values="0 0 0 0 0 0 0 0 0 0 0 0 0 0 0 0 0 0 127 0" result="hardAlpha"/>
<feOffset dy="15"/>
<feGaussianBlur stdDeviation="12.5"/>
<feComposite in2="hardAlpha" operator="out"/>
<feColorMatrix type="matrix" values="0 0 0 0 0 0 0 0 0 0 0 0 0 0 0 0 0 0 0.25 0"/>
<feBlend mode="normal" in2="BackgroundImageFix" result="effect1_dropShadow_98_673"/>
<feBlend mode="normal" in="SourceGraphic" in2="effect1_dropShadow_98_673" result="shape"/>
</filter>
</defs>
</svg>
