<svg width="159" height="157" viewBox="0 0 159 157" fill="none" xmlns="http://www.w3.org/2000/svg">
<g filter="url(#filter0_d_11_1002)">
<rect x="25" y="10" width="109" height="107" rx="8" fill="#33333D"/>
</g>
<path d="M63.8529 66.8015L60.4839 29H97.5159L94.1424 66.7955L78.9774 71L63.8529 66.8015Z" fill="#1572B6"/>
<path d="M79 67.7871L91.255 64.3896L94.138 32.0916H79V67.7871Z" fill="#33A9DC"/>
<path d="M79 45.7866H85.135L85.558 41.0391H79V36.4026H90.625L90.514 37.6461L89.3755 50.4231H79V45.7866V45.7866Z" fill="white"/>
<path d="M79.0284 57.827L79.0074 57.833L73.8444 56.438L73.5144 52.7405H68.8599L69.5094 60.02L79.0059 62.657L79.0284 62.651V57.827V57.827Z" fill="#EBEBEB"/>
<path d="M84.7407 50.2266L84.1827 56.4351L79.0122 57.8301V62.6541L88.5162 60.0201L88.5867 59.2371L89.3922 50.2266H84.7407V50.2266Z" fill="white"/>
<path d="M79.0164 36.4026V41.0391H67.8174L67.7244 39.9966L67.5129 37.6461L67.4019 36.4026H79.0164V36.4026ZM78.9999 45.7866V50.4231H73.9014L73.8084 49.3806L73.5984 47.0301L73.4874 45.7866H78.9999V45.7866Z" fill="#EBEBEB"/>
<path d="M68.9357 88.166C68.441 88.166 67.9977 88.2547 67.6057 88.432C67.2137 88.6 66.8777 88.852 66.5977 89.188C66.327 89.524 66.117 89.93 65.9677 90.406C65.8277 90.882 65.7577 91.4187 65.7577 92.016C65.7577 92.8 65.8744 93.4813 66.1077 94.06C66.341 94.6293 66.691 95.068 67.1577 95.376C67.6244 95.684 68.2124 95.838 68.9217 95.838C69.351 95.838 69.7617 95.8007 70.1537 95.726C70.555 95.642 70.961 95.5347 71.3717 95.404V96.706C70.9797 96.8553 70.5784 96.9627 70.1677 97.028C69.757 97.1027 69.281 97.14 68.7397 97.14C67.7224 97.14 66.873 96.93 66.1917 96.51C65.5197 96.09 65.0157 95.4927 64.6797 94.718C64.3437 93.9433 64.1757 93.038 64.1757 92.002C64.1757 91.246 64.2784 90.5553 64.4837 89.93C64.6984 89.2953 65.0064 88.7493 65.4077 88.292C65.809 87.8347 66.3037 87.4847 66.8917 87.242C67.489 86.99 68.175 86.864 68.9497 86.864C69.4537 86.864 69.9484 86.92 70.4337 87.032C70.919 87.1347 71.3577 87.284 71.7497 87.48L71.1897 88.74C70.863 88.5907 70.5084 88.46 70.1257 88.348C69.7524 88.2267 69.3557 88.166 68.9357 88.166ZM79.2861 94.298C79.2861 94.8953 79.1414 95.404 78.8521 95.824C78.5627 96.244 78.1474 96.5707 77.6061 96.804C77.0647 97.028 76.4207 97.14 75.6741 97.14C75.3101 97.14 74.9601 97.1167 74.6241 97.07C74.2881 97.0327 73.9754 96.9767 73.6861 96.902C73.3967 96.8273 73.1401 96.734 72.9161 96.622V95.194C73.2894 95.362 73.7281 95.516 74.2321 95.656C74.7361 95.7867 75.2494 95.852 75.7721 95.852C76.2201 95.852 76.5934 95.7913 76.8921 95.67C77.1907 95.5487 77.4147 95.3807 77.5641 95.166C77.7134 94.9513 77.7881 94.6993 77.7881 94.41C77.7881 94.102 77.7087 93.8453 77.5501 93.64C77.4007 93.4253 77.1627 93.2293 76.8361 93.052C76.5187 92.8653 76.0894 92.6693 75.5481 92.464C75.1747 92.324 74.8341 92.17 74.5261 92.002C74.2274 91.8247 73.9614 91.6193 73.7281 91.386C73.5041 91.1527 73.3314 90.882 73.2101 90.574C73.0887 90.266 73.0281 89.9067 73.0281 89.496C73.0281 88.9453 73.1634 88.474 73.4341 88.082C73.7141 87.69 74.0967 87.3913 74.5821 87.186C75.0674 86.9713 75.6321 86.864 76.2761 86.864C76.8174 86.864 77.3167 86.92 77.7741 87.032C78.2407 87.1347 78.6841 87.2793 79.1041 87.466L78.6281 88.712C78.2454 88.5533 77.8581 88.4227 77.4661 88.32C77.0741 88.2173 76.6634 88.166 76.2341 88.166C75.8607 88.166 75.5481 88.222 75.2961 88.334C75.0441 88.446 74.8527 88.6 74.7221 88.796C74.6007 88.992 74.5401 89.2207 74.5401 89.482C74.5401 89.79 74.6101 90.0467 74.7501 90.252C74.8901 90.4573 75.1141 90.6487 75.4221 90.826C75.7301 90.994 76.1361 91.1807 76.6401 91.386C77.2001 91.6007 77.6761 91.834 78.0681 92.086C78.4694 92.338 78.7727 92.6413 78.9781 92.996C79.1834 93.3413 79.2861 93.7753 79.2861 94.298ZM87.0043 94.298C87.0043 94.8953 86.8597 95.404 86.5703 95.824C86.281 96.244 85.8657 96.5707 85.3243 96.804C84.783 97.028 84.139 97.14 83.3923 97.14C83.0283 97.14 82.6783 97.1167 82.3423 97.07C82.0063 97.0327 81.6937 96.9767 81.4043 96.902C81.115 96.8273 80.8583 96.734 80.6343 96.622V95.194C81.0077 95.362 81.4463 95.516 81.9503 95.656C82.4543 95.7867 82.9677 95.852 83.4903 95.852C83.9383 95.852 84.3117 95.7913 84.6103 95.67C84.909 95.5487 85.133 95.3807 85.2823 95.166C85.4317 94.9513 85.5063 94.6993 85.5063 94.41C85.5063 94.102 85.427 93.8453 85.2683 93.64C85.119 93.4253 84.881 93.2293 84.5543 93.052C84.237 92.8653 83.8077 92.6693 83.2663 92.464C82.893 92.324 82.5523 92.17 82.2443 92.002C81.9457 91.8247 81.6797 91.6193 81.4463 91.386C81.2223 91.1527 81.0497 90.882 80.9283 90.574C80.807 90.266 80.7463 89.9067 80.7463 89.496C80.7463 88.9453 80.8817 88.474 81.1523 88.082C81.4323 87.69 81.815 87.3913 82.3003 87.186C82.7857 86.9713 83.3503 86.864 83.9943 86.864C84.5357 86.864 85.035 86.92 85.4923 87.032C85.959 87.1347 86.4023 87.2793 86.8223 87.466L86.3463 88.712C85.9637 88.5533 85.5763 88.4227 85.1843 88.32C84.7923 88.2173 84.3817 88.166 83.9523 88.166C83.579 88.166 83.2663 88.222 83.0143 88.334C82.7623 88.446 82.571 88.6 82.4403 88.796C82.319 88.992 82.2583 89.2207 82.2583 89.482C82.2583 89.79 82.3283 90.0467 82.4683 90.252C82.6083 90.4573 82.8323 90.6487 83.1403 90.826C83.4483 90.994 83.8543 91.1807 84.3583 91.386C84.9183 91.6007 85.3943 91.834 85.7863 92.086C86.1877 92.338 86.491 92.6413 86.6963 92.996C86.9017 93.3413 87.0043 93.7753 87.0043 94.298ZM94.6246 89.314C94.6246 89.762 94.5359 90.154 94.3586 90.49C94.1906 90.8167 93.9479 91.0827 93.6306 91.288C93.3133 91.4933 92.9493 91.6427 92.5386 91.736V91.792C93.3413 91.8853 93.9386 92.1373 94.3306 92.548C94.7319 92.9493 94.9326 93.4813 94.9326 94.144C94.9326 94.7227 94.7926 95.2407 94.5126 95.698C94.2419 96.146 93.8173 96.5007 93.2386 96.762C92.6693 97.014 91.9366 97.14 91.0406 97.14C90.5086 97.14 90.0139 97.098 89.5566 97.014C89.0993 96.93 88.6653 96.79 88.2546 96.594V95.25C88.6746 95.4647 89.1226 95.628 89.5986 95.74C90.0839 95.852 90.5459 95.908 90.9846 95.908C91.8339 95.908 92.4453 95.7493 92.8186 95.432C93.1919 95.1053 93.3786 94.6527 93.3786 94.074C93.3786 93.7007 93.2806 93.3973 93.0846 93.164C92.8886 92.9213 92.5899 92.744 92.1886 92.632C91.7873 92.5107 91.2879 92.45 90.6906 92.45H89.7806V91.232H90.7046C91.2739 91.232 91.7359 91.162 92.0906 91.022C92.4453 90.8727 92.7066 90.6673 92.8746 90.406C93.0426 90.1447 93.1266 89.846 93.1266 89.51C93.1266 89.062 92.9773 88.7167 92.6786 88.474C92.3893 88.222 91.9693 88.096 91.4186 88.096C91.0826 88.096 90.7699 88.1333 90.4806 88.208C90.2006 88.2827 89.9439 88.3807 89.7106 88.502C89.4773 88.6233 89.2486 88.7587 89.0246 88.908L88.2966 87.886C88.5486 87.6993 88.8286 87.5267 89.1366 87.368C89.4539 87.2093 89.8039 87.088 90.1866 87.004C90.5786 86.9107 91.0033 86.864 91.4606 86.864C92.4966 86.864 93.2806 87.0927 93.8126 87.55C94.3539 87.998 94.6246 88.586 94.6246 89.314Z" fill="white"/>
<defs>
<filter id="filter0_d_11_1002" x="0" y="0" width="159" height="157" filterUnits="userSpaceOnUse" color-interpolation-filters="sRGB">
<feFlood flood-opacity="0" result="BackgroundImageFix"/>
<feColorMatrix in="SourceAlpha" type="matrix" values="0 0 0 0 0 0 0 0 0 0 0 0 0 0 0 0 0 0 127 0" result="hardAlpha"/>
<feOffset dy="15"/>
<feGaussianBlur stdDeviation="12.5"/>
<feComposite in2="hardAlpha" operator="out"/>
<feColorMatrix type="matrix" values="0 0 0 0 0 0 0 0 0 0 0 0 0 0 0 0 0 0 0.25 0"/>
<feBlend mode="normal" in2="BackgroundImageFix" result="effect1_dropShadow_11_1002"/>
<feBlend mode="normal" in="SourceGraphic" in2="effect1_dropShadow_11_1002" result="shape"/>
</filter>
</defs>
</svg>
