<svg width="159" height="157" viewBox="0 0 159 157" fill="none" xmlns="http://www.w3.org/2000/svg">
<g filter="url(#filter0_d_11_1009)">
<rect x="25" y="10" width="109" height="107" rx="8" fill="#33333D"/>
</g>
<path d="M71 74C75.416 74 79 70.416 79 66V58H71C66.584 58 63 61.584 63 66C63 70.416 66.584 74 71 74Z" fill="#0ACF83"/>
<path d="M63 50C63 45.584 66.584 42 71 42H79V58H71C66.584 58 63 54.416 63 50Z" fill="#A259FF"/>
<path d="M63 34C63 29.584 66.584 26 71 26H79V42H71C66.584 42 63 38.416 63 34Z" fill="#F24E1E"/>
<path d="M79 26H87C91.416 26 95 29.584 95 34C95 38.416 91.416 42 87 42H79V26Z" fill="#FF7262"/>
<path d="M95 50C95 54.416 91.416 58 87 58C82.584 58 79 54.416 79 50C79 45.584 82.584 42 87 42C91.416 42 95 45.584 95 50Z" fill="#1ABCFE"/>
<path d="M61.1756 97H59.6776V87.004H65.3056V88.292H61.1756V91.554H65.0396V92.842H61.1756V97ZM68.4111 89.454V97H66.9271V89.454H68.4111ZM67.6831 86.584C67.9071 86.584 68.1031 86.6493 68.2711 86.78C68.4391 86.9107 68.5231 87.13 68.5231 87.438C68.5231 87.7367 68.4391 87.956 68.2711 88.096C68.1031 88.2267 67.9071 88.292 67.6831 88.292C67.4405 88.292 67.2351 88.2267 67.0671 88.096C66.9085 87.956 66.8291 87.7367 66.8291 87.438C66.8291 87.13 66.9085 86.9107 67.0671 86.78C67.2351 86.6493 67.4405 86.584 67.6831 86.584ZM73.3666 89.314C73.8519 89.314 74.2906 89.4073 74.6826 89.594C75.0746 89.7807 75.4059 90.0653 75.6766 90.448H75.7466L75.9146 89.454H77.1186V97.098C77.1186 97.8073 76.9926 98.4047 76.7406 98.89C76.4886 99.3753 76.1013 99.7393 75.5786 99.982C75.0653 100.234 74.4166 100.36 73.6326 100.36C73.0913 100.36 72.5919 100.323 72.1346 100.248C71.6773 100.173 71.2573 100.057 70.8746 99.898V98.596C71.1453 98.7267 71.4299 98.834 71.7286 98.918C72.0273 99.0113 72.3446 99.0767 72.6806 99.114C73.0166 99.1607 73.3619 99.184 73.7166 99.184C74.3326 99.184 74.8086 99.0067 75.1446 98.652C75.4806 98.3067 75.6486 97.8167 75.6486 97.182V96.93C75.6486 96.8087 75.6533 96.65 75.6626 96.454C75.6719 96.2487 75.6813 96.0993 75.6906 96.006H75.6346C75.3733 96.398 75.0513 96.6873 74.6686 96.874C74.2953 97.0513 73.8613 97.14 73.3666 97.14C72.4146 97.14 71.6679 96.7993 71.1266 96.118C70.5946 95.4273 70.3286 94.4707 70.3286 93.248C70.3286 92.4267 70.4499 91.7267 70.6926 91.148C70.9353 90.56 71.2806 90.1073 71.7286 89.79C72.1859 89.4727 72.7319 89.314 73.3666 89.314ZM73.6746 90.546C73.2826 90.546 72.9513 90.6533 72.6806 90.868C72.4099 91.0733 72.2046 91.3767 72.0646 91.778C71.9246 92.1793 71.8546 92.674 71.8546 93.262C71.8546 94.1393 72.0086 94.8067 72.3166 95.264C72.6339 95.7213 73.0959 95.95 73.7026 95.95C74.0573 95.95 74.3559 95.9033 74.5986 95.81C74.8506 95.7167 75.0559 95.572 75.2146 95.376C75.3826 95.18 75.5039 94.9327 75.5786 94.634C75.6626 94.326 75.7046 93.9573 75.7046 93.528V93.248C75.7046 92.604 75.6299 92.086 75.4806 91.694C75.3406 91.2927 75.1213 91.0033 74.8226 90.826C74.5239 90.6393 74.1413 90.546 73.6746 90.546ZM87.9212 89.314C88.7706 89.314 89.4099 89.5333 89.8392 89.972C90.2686 90.4107 90.4832 91.1153 90.4832 92.086V97H88.9992V92.282C88.9992 91.7033 88.8826 91.2693 88.6492 90.98C88.4252 90.6813 88.0706 90.532 87.5852 90.532C86.9132 90.532 86.4326 90.742 86.1432 91.162C85.8539 91.5727 85.7092 92.17 85.7092 92.954V97H84.2392V92.282C84.2392 91.8993 84.1832 91.5773 84.0712 91.316C83.9686 91.0547 83.8146 90.8587 83.6092 90.728C83.4039 90.5973 83.1379 90.532 82.8112 90.532C82.3446 90.532 81.9759 90.6347 81.7052 90.84C81.4346 91.0453 81.2386 91.3487 81.1172 91.75C81.0052 92.142 80.9492 92.6227 80.9492 93.192V97H79.4652V89.454H80.6412L80.8512 90.462H80.9352C81.0939 90.2007 81.2852 89.986 81.5092 89.818C81.7426 89.65 81.9992 89.524 82.2792 89.44C82.5592 89.356 82.8486 89.314 83.1472 89.314C83.7166 89.314 84.1972 89.4167 84.5892 89.622C84.9812 89.818 85.2659 90.1213 85.4432 90.532H85.5552C85.7979 90.112 86.1339 89.804 86.5632 89.608C86.9926 89.412 87.4452 89.314 87.9212 89.314ZM95.7013 89.314C96.6533 89.314 97.3626 89.524 97.8293 89.944C98.296 90.3547 98.5293 91.0033 98.5293 91.89V97H97.4793L97.1853 95.95H97.1293C96.9146 96.2207 96.6906 96.4447 96.4573 96.622C96.2333 96.7993 95.972 96.93 95.6733 97.014C95.384 97.098 95.0293 97.14 94.6093 97.14C94.1613 97.14 93.7553 97.0607 93.3913 96.902C93.0366 96.734 92.7566 96.482 92.5513 96.146C92.346 95.8007 92.2433 95.3713 92.2433 94.858C92.2433 94.0927 92.5326 93.5093 93.1113 93.108C93.6993 92.7067 94.5906 92.4873 95.7853 92.45L97.0733 92.408V91.988C97.0733 91.428 96.9473 91.036 96.6953 90.812C96.4433 90.588 96.0886 90.476 95.6313 90.476C95.2393 90.476 94.866 90.532 94.5113 90.644C94.1566 90.756 93.8206 90.8913 93.5033 91.05L93.0273 89.972C93.382 89.7853 93.788 89.6313 94.2453 89.51C94.712 89.3793 95.1973 89.314 95.7013 89.314ZM96.0513 93.402C95.1926 93.4393 94.5953 93.584 94.2593 93.836C93.9326 94.0787 93.7693 94.424 93.7693 94.872C93.7693 95.264 93.886 95.5487 94.1193 95.726C94.362 95.9033 94.6653 95.992 95.0293 95.992C95.6173 95.992 96.1026 95.8287 96.4853 95.502C96.868 95.1753 97.0593 94.6853 97.0593 94.032V93.374L96.0513 93.402Z" fill="white"/>
<defs>
<filter id="filter0_d_11_1009" x="0" y="0" width="159" height="157" filterUnits="userSpaceOnUse" color-interpolation-filters="sRGB">
<feFlood flood-opacity="0" result="BackgroundImageFix"/>
<feColorMatrix in="SourceAlpha" type="matrix" values="0 0 0 0 0 0 0 0 0 0 0 0 0 0 0 0 0 0 127 0" result="hardAlpha"/>
<feOffset dy="15"/>
<feGaussianBlur stdDeviation="12.5"/>
<feComposite in2="hardAlpha" operator="out"/>
<feColorMatrix type="matrix" values="0 0 0 0 0 0 0 0 0 0 0 0 0 0 0 0 0 0 0.25 0"/>
<feBlend mode="normal" in2="BackgroundImageFix" result="effect1_dropShadow_11_1009"/>
<feBlend mode="normal" in="SourceGraphic" in2="effect1_dropShadow_11_1009" result="shape"/>
</filter>
</defs>
</svg>
