<svg width="32" height="32" viewBox="0 0 32 32" fill="none" xmlns="http://www.w3.org/2000/svg">
<path fill-rule="evenodd" clip-rule="evenodd" d="M6.66598 1.33325V2.66659C6.66598 1.33325 6.66696 1.33325 6.66795 1.33325L6.66995 1.33326L6.67404 1.33328L6.68258 1.33335L6.70113 1.33368C6.71414 1.33398 6.72844 1.33447 6.74404 1.3352C6.77523 1.33666 6.81153 1.3391 6.85293 1.34298C6.93578 1.35075 7.03875 1.36429 7.1617 1.38734C7.40782 1.43349 7.73216 1.5174 8.13414 1.66815C8.84567 1.93497 9.79777 2.4101 10.991 3.25377C14.3032 2.69308 17.6954 2.69308 21.0077 3.25377C22.2009 2.4101 23.153 1.93497 23.8645 1.66815C24.2665 1.5174 24.5908 1.43349 24.8369 1.38734C24.9599 1.36429 25.0628 1.35075 25.1457 1.34298C25.1871 1.3391 25.2234 1.33666 25.2546 1.3352C25.2702 1.33447 25.2845 1.33398 25.2975 1.33368L25.316 1.33335L25.3246 1.33328L25.3287 1.33326L25.3307 1.33325C25.3317 1.33325 25.3326 1.33325 25.3326 2.66659V1.33325C25.9475 1.33325 26.4827 1.75373 26.6281 2.35116C27.0048 3.8981 27.0467 5.50486 26.7538 7.06511C27.6691 8.55682 28.1028 10.2876 27.9992 12.0423C27.9788 16.7407 24.5732 19.6311 20.8244 20.4357C21.2796 21.5803 21.4592 22.8271 21.3326 24.0708V29.3333C21.3326 30.0696 20.7357 30.6666 19.9993 30.6666C19.2629 30.6666 18.666 30.0696 18.666 29.3333V23.9999C18.666 23.9503 18.6687 23.9008 18.6743 23.8515C18.8218 22.534 18.4422 21.2037 17.6187 20.1584C17.3026 19.7572 17.2434 19.2107 17.4664 18.7512C17.6894 18.2917 18.1552 17.9999 18.666 17.9999C22.1675 17.9999 25.3326 15.7129 25.3326 11.9999C25.3326 11.9715 25.3336 11.9431 25.3354 11.9148C25.4225 10.5538 25.0421 9.21825 24.2484 8.10924C24.0224 7.79354 23.9453 7.39503 24.0372 7.01783C24.2463 6.15869 24.32 5.27537 24.2581 4.39921C23.7329 4.65248 23.0243 5.06449 22.1326 5.73325C21.833 5.95801 21.4526 6.04634 21.0845 5.97663C17.7285 5.34101 14.2701 5.34101 10.9141 5.97663C10.546 6.04634 10.1657 5.95801 9.86598 5.73325C8.96431 5.057 8.24986 4.64328 7.72292 4.39075C7.65528 5.2625 7.73302 6.14139 7.95614 6.99669C8.05606 7.37972 7.98062 7.78734 7.75024 8.10924C6.95654 9.21825 6.57616 10.5538 6.66326 11.9148C6.66507 11.9431 6.66598 11.9715 6.66598 11.9999C6.66598 15.7129 9.83108 17.9999 13.3326 17.9999C13.8446 17.9999 14.3113 18.293 14.5337 18.7542C14.756 19.2153 14.6947 19.763 14.3759 20.1636C13.9635 20.6816 13.6596 21.2703 13.4821 21.8967C13.3034 22.5277 13.2501 23.1933 13.3242 23.8503C13.3298 23.9 13.3326 23.9499 13.3326 23.9999V29.3333C13.3326 30.0696 12.7357 30.6666 11.9993 30.6666C11.2629 30.6666 10.666 30.0696 10.666 29.3333V24.0714C10.5662 23.1002 10.6491 22.1135 10.9165 21.1698C10.9873 20.9198 11.0709 20.6743 11.1667 20.4341C7.42085 19.6272 4.01976 16.7375 3.9994 12.0423C3.89604 10.2915 4.32762 8.56443 5.23874 7.07497C4.92405 5.50454 4.96974 3.88667 5.37582 2.33002C5.52898 1.74292 6.05922 1.33325 6.66598 1.33325Z" fill="#79F3AA"/>
<path fill-rule="evenodd" clip-rule="evenodd" d="M1.33398 21.3333C1.33398 20.597 1.93094 20 2.66732 20C3.82116 20 4.67109 20.5925 5.27698 21.1163C5.53334 21.3379 5.78815 21.5858 6.01582 21.8073C6.05628 21.8466 6.09589 21.8852 6.1345 21.9226C6.40506 22.1847 6.65291 22.418 6.91259 22.6261C7.41735 23.0304 7.92366 23.3033 8.55465 23.3864C9.19586 23.4709 10.1134 23.3783 11.4601 22.7811C12.1333 22.4826 12.921 22.7863 13.2195 23.4595C13.518 24.1326 13.2143 24.9203 12.5412 25.2189C10.8812 25.955 9.46211 26.1957 8.20624 26.0302C6.94014 25.8634 5.98895 25.3029 5.24538 24.7073C4.88089 24.4153 4.55686 24.107 4.27904 23.8379C4.23248 23.7927 4.18762 23.7492 4.14418 23.7069C3.91473 23.484 3.72502 23.2996 3.53307 23.1337C3.07855 22.7408 2.84681 22.6667 2.66732 22.6667C1.93094 22.6667 1.33398 22.0697 1.33398 21.3333Z" fill="#79F3AA"/>
</svg>
