<svg width="159" height="157" viewBox="0 0 159 157" fill="none" xmlns="http://www.w3.org/2000/svg">
<g filter="url(#filter0_d_11_1008)">
<rect x="25" y="10" width="109" height="107" rx="8" fill="#33333D"/>
</g>
<path fill-rule="evenodd" clip-rule="evenodd" d="M79 26C65.74 26 55 36.74 55 50C55 60.62 61.87 69.59 71.41 72.77C72.61 72.98 73.06 72.26 73.06 71.63C73.06 71.06 73.03 69.17 73.03 67.16C67 68.27 65.44 65.69 64.96 64.34C64.69 63.65 63.52 61.52 62.5 60.95C61.66 60.5 60.46 59.39 62.47 59.36C64.36 59.33 65.71 61.1 66.16 61.82C68.32 65.45 71.77 64.43 73.15 63.8C73.36 62.24 73.99 61.19 74.68 60.59C69.34 59.99 63.76 57.92 63.76 48.74C63.76 46.13 64.69 43.97 66.22 42.29C65.98 41.69 65.14 39.23 66.46 35.93C66.46 35.93 68.47 35.3 73.06 38.39C74.98 37.85 77.02 37.58 79.06 37.58C81.1 37.58 83.14 37.85 85.06 38.39C89.65 35.27 91.66 35.93 91.66 35.93C92.98 39.23 92.14 41.69 91.9 42.29C93.43 43.97 94.36 46.1 94.36 48.74C94.36 57.95 88.75 59.99 83.41 60.59C84.28 61.34 85.03 62.78 85.03 65.03C85.03 68.24 85 70.82 85 71.63C85 72.26 85.45 73.01 86.65 72.77C91.4144 71.1614 95.5544 68.0994 98.4873 64.0147C101.42 59.9301 102.999 55.0286 103 50C103 36.74 92.26 26 79 26Z" fill="white"/>
<path d="M60.7903 91.624H64.4023V96.608C63.8703 96.7853 63.3243 96.916 62.7643 97C62.2137 97.0933 61.5837 97.14 60.8743 97.14C59.857 97.14 58.9937 96.9347 58.2843 96.524C57.5843 96.1133 57.0477 95.5253 56.6743 94.76C56.3103 93.9947 56.1283 93.0753 56.1283 92.002C56.1283 90.9567 56.3337 90.0513 56.7443 89.286C57.155 88.5207 57.743 87.928 58.5083 87.508C59.283 87.0787 60.221 86.864 61.3223 86.864C61.873 86.864 62.4003 86.92 62.9043 87.032C63.4083 87.1347 63.875 87.2793 64.3043 87.466L63.7583 88.726C63.413 88.5673 63.0257 88.4367 62.5963 88.334C62.1763 88.222 61.733 88.166 61.2663 88.166C60.529 88.166 59.8897 88.3247 59.3483 88.642C58.8163 88.95 58.4057 89.3933 58.1163 89.972C57.8363 90.5413 57.6963 91.2227 57.6963 92.016C57.6963 92.7627 57.813 93.4253 58.0463 94.004C58.2797 94.5827 58.6483 95.0353 59.1523 95.362C59.6563 95.6887 60.3143 95.852 61.1263 95.852C61.397 95.852 61.635 95.8427 61.8403 95.824C62.0457 95.796 62.2323 95.768 62.4003 95.74C62.5777 95.7027 62.7457 95.67 62.9043 95.642V92.926H60.7903V91.624ZM68.1272 89.454V97H66.6432V89.454H68.1272ZM67.3992 86.584C67.6232 86.584 67.8192 86.6493 67.9872 86.78C68.1552 86.9107 68.2392 87.13 68.2392 87.438C68.2392 87.7367 68.1552 87.956 67.9872 88.096C67.8192 88.2267 67.6232 88.292 67.3992 88.292C67.1565 88.292 66.9512 88.2267 66.7832 88.096C66.6245 87.956 66.5452 87.7367 66.5452 87.438C66.5452 87.13 66.6245 86.9107 66.7832 86.78C66.9512 86.6493 67.1565 86.584 67.3992 86.584ZM73.1946 95.936C73.3906 95.936 73.5913 95.9173 73.7966 95.88C74.002 95.8427 74.1793 95.8007 74.3286 95.754V96.874C74.17 96.9487 73.9553 97.0093 73.6846 97.056C73.414 97.112 73.1433 97.14 72.8726 97.14C72.462 97.14 72.084 97.07 71.7386 96.93C71.4026 96.79 71.132 96.5473 70.9266 96.202C70.7213 95.8567 70.6186 95.376 70.6186 94.76V90.588H69.5686V89.916L70.6746 89.356L71.1926 87.76H72.1026V89.454H74.2586V90.588H72.1026V94.732C72.1026 95.1427 72.2006 95.446 72.3966 95.642C72.602 95.838 72.868 95.936 73.1946 95.936ZM83.825 97H82.313V92.436H77.539V97H76.027V87.004H77.539V91.148H82.313V87.004H83.825V97ZM92.8487 89.454V97H91.6587L91.4487 96.006H91.3787C91.22 96.2673 91.0147 96.482 90.7627 96.65C90.5107 96.818 90.2353 96.9393 89.9367 97.014C89.638 97.098 89.33 97.14 89.0127 97.14C88.4247 97.14 87.9253 97.0467 87.5147 96.86C87.1133 96.664 86.8053 96.3653 86.5907 95.964C86.3853 95.5533 86.2827 95.0307 86.2827 94.396V89.454H87.7807V94.172C87.7807 94.76 87.902 95.1987 88.1447 95.488C88.3967 95.7773 88.784 95.922 89.3067 95.922C89.8293 95.922 90.24 95.8193 90.5387 95.614C90.8373 95.4087 91.0473 95.11 91.1687 94.718C91.2993 94.3167 91.3647 93.836 91.3647 93.276V89.454H92.8487ZM96.676 88.922C96.676 89.23 96.6667 89.524 96.648 89.804C96.6387 90.0747 96.6247 90.2893 96.606 90.448H96.676C96.8907 90.1307 97.18 89.8647 97.544 89.65C97.908 89.4353 98.3794 89.328 98.958 89.328C99.8634 89.328 100.591 89.6547 101.142 90.308C101.702 90.9613 101.982 91.932 101.982 93.22C101.982 94.088 101.856 94.8113 101.604 95.39C101.352 95.9687 100.997 96.4073 100.54 96.706C100.083 96.9953 99.5507 97.14 98.944 97.14C98.356 97.14 97.8847 97.0373 97.53 96.832C97.1754 96.6173 96.8907 96.3653 96.676 96.076H96.564L96.284 97H95.192V86.36H96.676V88.922ZM98.608 90.532C98.1227 90.532 97.74 90.6253 97.46 90.812C97.18 90.9987 96.9794 91.2833 96.858 91.666C96.7367 92.0487 96.676 92.534 96.676 93.122V93.234C96.676 94.102 96.816 94.7693 97.096 95.236C97.376 95.6933 97.8894 95.922 98.636 95.922C99.2334 95.922 99.686 95.6887 99.994 95.222C100.302 94.7553 100.456 94.0833 100.456 93.206C100.456 92.3193 100.302 91.652 99.994 91.204C99.686 90.756 99.224 90.532 98.608 90.532Z" fill="white"/>
<defs>
<filter id="filter0_d_11_1008" x="0" y="0" width="159" height="157" filterUnits="userSpaceOnUse" color-interpolation-filters="sRGB">
<feFlood flood-opacity="0" result="BackgroundImageFix"/>
<feColorMatrix in="SourceAlpha" type="matrix" values="0 0 0 0 0 0 0 0 0 0 0 0 0 0 0 0 0 0 127 0" result="hardAlpha"/>
<feOffset dy="15"/>
<feGaussianBlur stdDeviation="12.5"/>
<feComposite in2="hardAlpha" operator="out"/>
<feColorMatrix type="matrix" values="0 0 0 0 0 0 0 0 0 0 0 0 0 0 0 0 0 0 0.25 0"/>
<feBlend mode="normal" in2="BackgroundImageFix" result="effect1_dropShadow_11_1008"/>
<feBlend mode="normal" in="SourceGraphic" in2="effect1_dropShadow_11_1008" result="shape"/>
</filter>
</defs>
</svg>
