<svg width="94" height="95" viewBox="0 0 94 95" fill="none" xmlns="http://www.w3.org/2000/svg">
<g filter="url(#filter0_d_11_982)">
<rect x="25" y="10.906" width="44" height="44" rx="8" fill="#33333D"/>
</g>
<path fill-rule="evenodd" clip-rule="evenodd" d="M37.6665 18.2393V19.5726C37.6665 18.2393 37.6674 18.2393 37.6684 18.2393L37.6704 18.2393L37.6745 18.2393L37.6831 18.2394L37.7016 18.2397C37.7146 18.24 37.7289 18.2405 37.7445 18.2412C37.7757 18.2427 37.812 18.2451 37.8534 18.249C37.9363 18.2568 38.0392 18.2703 38.1622 18.2933C38.4083 18.3395 38.7326 18.4234 39.1346 18.5742C39.8462 18.841 40.7983 19.3161 41.9915 20.1598C45.3037 19.5991 48.6959 19.5991 52.0081 20.1598C53.2013 19.3161 54.1534 18.841 54.865 18.5742C55.267 18.4234 55.5913 18.3395 55.8374 18.2933C55.9604 18.2703 56.0633 18.2568 56.1462 18.249C56.1876 18.2451 56.2239 18.2427 56.2551 18.2412C56.2707 18.2405 56.285 18.24 56.298 18.2397L56.3165 18.2394L56.3251 18.2393L56.3292 18.2393L56.3312 18.2393C56.3322 18.2393 56.3331 18.2393 56.3331 19.5726V18.2393C56.948 18.2393 57.4832 18.6597 57.6286 19.2572C58.0053 20.8041 58.0472 22.4109 57.7543 23.9711C58.6696 25.4628 59.1033 27.1936 58.9997 28.9483C58.9793 33.6467 55.5737 36.5371 51.8249 37.3418C52.2801 38.4863 52.4597 39.7331 52.3331 40.9768V46.2393C52.3331 46.9756 51.7362 47.5726 50.9998 47.5726C50.2634 47.5726 49.6665 46.9756 49.6665 46.2393V40.9059C49.6665 40.8563 49.6692 40.8068 49.6748 40.7575C49.8223 39.4401 49.4427 38.1097 48.6191 37.0644C48.3031 36.6632 48.2439 36.1167 48.4669 35.6572C48.6898 35.1977 49.1557 34.9059 49.6665 34.9059C53.168 34.9059 56.3331 32.6189 56.3331 28.9059C56.3331 28.8775 56.334 28.8491 56.3359 28.8208C56.423 27.4598 56.0426 26.1243 55.2489 25.0152C55.0229 24.6995 54.9458 24.301 55.0376 23.9238C55.2468 23.0647 55.3205 22.1814 55.2586 21.3052C54.7334 21.5585 54.0248 21.9705 53.1331 22.6393C52.8335 22.864 52.4531 22.9523 52.085 22.8826C48.729 22.247 45.2706 22.247 41.9146 22.8826C41.5465 22.9523 41.1661 22.864 40.8665 22.6393C39.9648 21.963 39.2503 21.5493 38.7234 21.2968C38.6558 22.1685 38.7335 23.0474 38.9566 23.9027C39.0565 24.2857 38.9811 24.6933 38.7507 25.0152C37.957 26.1243 37.5766 27.4598 37.6637 28.8208C37.6656 28.8491 37.6665 28.8775 37.6665 28.9059C37.6665 32.6189 40.8316 34.9059 44.3331 34.9059C44.8451 34.9059 45.3118 35.199 45.5342 35.6602C45.7565 36.1213 45.6952 36.669 45.3764 37.0696C44.964 37.5877 44.6601 38.1763 44.4826 38.8027C44.3039 39.4337 44.2505 40.0993 44.3247 40.7563C44.3303 40.806 44.3331 40.8559 44.3331 40.9059V46.2393C44.3331 46.9756 43.7362 47.5726 42.9998 47.5726C42.2634 47.5726 41.6665 46.9756 41.6665 46.2393V40.9774C41.5667 40.0062 41.6496 39.0195 41.917 38.0758C41.9878 37.8258 42.0714 37.5803 42.1672 37.3401C38.4213 36.5333 35.0202 33.6436 34.9999 28.9483C34.8965 27.1975 35.3281 25.4704 36.2392 23.981C35.9245 22.4105 35.9702 20.7927 36.3763 19.236C36.5295 18.6489 37.0597 18.2393 37.6665 18.2393Z" fill="#79F3AA"/>
<path fill-rule="evenodd" clip-rule="evenodd" d="M32.3335 38.2393C32.3335 37.503 32.9304 36.906 33.6668 36.906C34.8207 36.906 35.6706 37.4985 36.2765 38.0223C36.5329 38.2439 36.7877 38.4918 37.0153 38.7133C37.0558 38.7526 37.0954 38.7912 37.134 38.8286C37.4046 39.0907 37.6524 39.324 37.9121 39.5321C38.4169 39.9364 38.9232 40.2093 39.5542 40.2924C40.1954 40.3769 41.1129 40.2844 42.4596 39.6871C43.1328 39.3886 43.9205 39.6923 44.219 40.3655C44.5175 41.0386 44.2138 41.8263 43.5407 42.1249C41.8807 42.861 40.4616 43.1017 39.2058 42.9362C37.9397 42.7694 36.9885 42.2089 36.2449 41.6133C35.8804 41.3213 35.5564 41.013 35.2786 40.7439C35.232 40.6988 35.1871 40.6552 35.1437 40.613C34.9142 40.39 34.7245 40.2056 34.5326 40.0397C34.0781 39.6468 33.8463 39.5727 33.6668 39.5727C32.9304 39.5727 32.3335 38.9757 32.3335 38.2393Z" fill="#79F3AA"/>
<defs>
<filter id="filter0_d_11_982" x="0" y="0.906006" width="94" height="94" filterUnits="userSpaceOnUse" color-interpolation-filters="sRGB">
<feFlood flood-opacity="0" result="BackgroundImageFix"/>
<feColorMatrix in="SourceAlpha" type="matrix" values="0 0 0 0 0 0 0 0 0 0 0 0 0 0 0 0 0 0 127 0" result="hardAlpha"/>
<feOffset dy="15"/>
<feGaussianBlur stdDeviation="12.5"/>
<feComposite in2="hardAlpha" operator="out"/>
<feColorMatrix type="matrix" values="0 0 0 0 0 0 0 0 0 0 0 0 0 0 0 0 0 0 0.25 0"/>
<feBlend mode="normal" in2="BackgroundImageFix" result="effect1_dropShadow_11_982"/>
<feBlend mode="normal" in="SourceGraphic" in2="effect1_dropShadow_11_982" result="shape"/>
</filter>
</defs>
</svg>
