<svg width="159" height="157" viewBox="0 0 159 157" fill="none" xmlns="http://www.w3.org/2000/svg">
<g filter="url(#filter0_d_11_1001)">
<rect x="25" y="10" width="109" height="107" rx="8" fill="#33333D"/>
</g>
<path d="M63.8529 66.8015L60.4824 29H97.5174L94.1424 66.7955L78.9774 71L63.8529 66.8015Z" fill="#E44F26"/>
<path d="M79 67.7871L91.255 64.3896L94.138 32.0916H79V67.7871Z" fill="#F1662A"/>
<path d="M79 46.1106H72.865L72.442 41.3631H79V36.7266H67.375L67.486 37.9716L68.6245 50.7471H79V46.1106V46.1106ZM79 58.1511L78.979 58.1571L73.816 56.7636L73.486 53.0661H68.8315L69.481 60.3441L78.979 62.9811L79 62.9751V58.1511Z" fill="#EBEBEB"/>
<path d="M78.9834 46.1106V50.7471H84.6924L84.1554 56.7606L78.9834 58.1556V62.9796L88.4889 60.3441L88.5579 59.5611L89.6469 47.3556L89.7609 46.1106H78.9834V46.1106ZM78.9834 36.7266V41.3631H90.1824L90.2754 40.3221L90.4869 37.9716L90.5979 36.7266H78.9834V36.7266Z" fill="white"/>
<path d="M65.2208 97H63.7088V92.436H58.9348V97H57.4228V87.004H58.9348V91.148H63.7088V87.004H65.2208V97ZM71.2764 97H69.7644V88.306H66.7684V87.004H74.2724V88.306H71.2764V97ZM80.1801 97L77.1561 88.502H77.1001C77.1094 88.6887 77.1234 88.9407 77.1421 89.258C77.1608 89.5753 77.1748 89.916 77.1841 90.28C77.1934 90.644 77.1981 91.0033 77.1981 91.358V97H75.8261V87.004H77.9821L80.8521 95.026H80.9081L83.8621 87.004H86.0181V97H84.5481V91.274C84.5481 90.9473 84.5528 90.6113 84.5621 90.266C84.5808 89.9113 84.5948 89.58 84.6041 89.272C84.6228 88.964 84.6368 88.712 84.6461 88.516H84.5901L81.4821 97H80.1801ZM88.6987 97V87.004H90.2107V95.698H94.4807V97H88.6987ZM98.8435 90.798C99.5062 90.798 100.085 90.9147 100.58 91.148C101.074 91.3813 101.457 91.7173 101.728 92.156C102.008 92.5947 102.148 93.1313 102.148 93.766C102.148 94.466 101.998 95.068 101.7 95.572C101.401 96.076 100.967 96.4633 100.398 96.734C99.8375 97.0047 99.1515 97.14 98.3395 97.14C97.8262 97.14 97.3408 97.0933 96.8835 97C96.4262 96.9067 96.0388 96.7713 95.7215 96.594V95.236C96.0575 95.432 96.4635 95.5907 96.9395 95.712C97.4248 95.8333 97.8868 95.894 98.3255 95.894C98.8015 95.894 99.2075 95.824 99.5435 95.684C99.8888 95.5347 100.155 95.3153 100.342 95.026C100.538 94.7273 100.636 94.354 100.636 93.906C100.636 93.2993 100.444 92.8373 100.062 92.52C99.6882 92.1933 99.0955 92.03 98.2835 92.03C98.0222 92.03 97.7282 92.0533 97.4015 92.1C97.0842 92.1467 96.8275 92.1933 96.6315 92.24L95.9455 91.834L96.3235 87.004H101.462V88.32H97.6115L97.3875 90.938C97.5462 90.91 97.7468 90.882 97.9895 90.854C98.2322 90.8167 98.5168 90.798 98.8435 90.798Z" fill="white"/>
<defs>
<filter id="filter0_d_11_1001" x="0" y="0" width="159" height="157" filterUnits="userSpaceOnUse" color-interpolation-filters="sRGB">
<feFlood flood-opacity="0" result="BackgroundImageFix"/>
<feColorMatrix in="SourceAlpha" type="matrix" values="0 0 0 0 0 0 0 0 0 0 0 0 0 0 0 0 0 0 127 0" result="hardAlpha"/>
<feOffset dy="15"/>
<feGaussianBlur stdDeviation="12.5"/>
<feComposite in2="hardAlpha" operator="out"/>
<feColorMatrix type="matrix" values="0 0 0 0 0 0 0 0 0 0 0 0 0 0 0 0 0 0 0.25 0"/>
<feBlend mode="normal" in2="BackgroundImageFix" result="effect1_dropShadow_11_1001"/>
<feBlend mode="normal" in="SourceGraphic" in2="effect1_dropShadow_11_1001" result="shape"/>
</filter>
</defs>
</svg>
