<svg width="159" height="157" viewBox="0 0 159 157" fill="none" xmlns="http://www.w3.org/2000/svg">
<g filter="url(#filter0_d_11_1005)">
<rect x="25" y="10" width="109" height="107" rx="8" fill="#33333D"/>
</g>
<path d="M55 26H103V74H55V26Z" fill="#F7DF1E"/>
<path d="M67.6208 66.1124L71.2939 63.8894C72.0027 65.1458 72.6473 66.2089 74.1936 66.2089C75.6758 66.2089 76.6105 65.6292 76.6105 63.3739V48.0368H81.1212V63.4377C81.1212 68.1096 78.3825 70.2362 74.3869 70.2362C70.7785 70.2362 68.6839 68.3674 67.6206 66.112L67.6208 66.1124ZM83.5712 65.629L87.244 63.5026C88.2109 65.0815 89.4675 66.2414 91.6905 66.2414C93.5597 66.2414 94.7515 65.3069 94.7515 64.018C94.7515 62.4715 93.5271 61.9236 91.465 61.0217L90.3375 60.538C87.0831 59.1529 84.9244 57.4129 84.9244 53.7398C84.9244 50.3566 87.502 47.7788 91.5297 47.7788C94.3973 47.7788 96.4594 48.7778 97.9414 51.3876L94.4292 53.6432C93.6557 52.2578 92.8183 51.7101 91.5295 51.7101C90.2084 51.7101 89.3706 52.5479 89.3706 53.6432C89.3706 54.9964 90.2084 55.5445 92.1415 56.3822L93.2691 56.8654C97.1035 58.5089 99.2622 60.1842 99.2622 63.9537C99.2622 68.0138 96.0724 70.2368 91.7871 70.2368C87.5985 70.2368 84.892 68.2392 83.571 65.6292" fill="black"/>
<path d="M49.1741 99.744C48.9408 99.744 48.7355 99.7253 48.5581 99.688C48.3808 99.66 48.2221 99.618 48.0821 99.562V98.302C48.2315 98.3393 48.3901 98.372 48.5581 98.4C48.7261 98.428 48.9035 98.442 49.0901 98.442C49.3235 98.442 49.5428 98.3953 49.7481 98.302C49.9628 98.2087 50.1308 98.0407 50.2521 97.798C50.3735 97.5553 50.4341 97.2147 50.4341 96.776V87.004H51.9461V96.706C51.9461 97.406 51.8295 97.98 51.5961 98.428C51.3721 98.8853 51.0501 99.2167 50.6301 99.422C50.2195 99.6367 49.7341 99.744 49.1741 99.744ZM57.3297 89.314C58.2817 89.314 58.991 89.524 59.4577 89.944C59.9244 90.3547 60.1577 91.0033 60.1577 91.89V97H59.1077L58.8137 95.95H58.7577C58.543 96.2207 58.319 96.4447 58.0857 96.622C57.8617 96.7993 57.6004 96.93 57.3017 97.014C57.0124 97.098 56.6577 97.14 56.2377 97.14C55.7897 97.14 55.3837 97.0607 55.0197 96.902C54.665 96.734 54.385 96.482 54.1797 96.146C53.9744 95.8007 53.8717 95.3713 53.8717 94.858C53.8717 94.0927 54.161 93.5093 54.7397 93.108C55.3277 92.7067 56.219 92.4873 57.4137 92.45L58.7017 92.408V91.988C58.7017 91.428 58.5757 91.036 58.3237 90.812C58.0717 90.588 57.717 90.476 57.2597 90.476C56.8677 90.476 56.4944 90.532 56.1397 90.644C55.785 90.756 55.449 90.8913 55.1317 91.05L54.6557 89.972C55.0104 89.7853 55.4164 89.6313 55.8737 89.51C56.3404 89.3793 56.8257 89.314 57.3297 89.314ZM57.6797 93.402C56.821 93.4393 56.2237 93.584 55.8877 93.836C55.561 94.0787 55.3977 94.424 55.3977 94.872C55.3977 95.264 55.5144 95.5487 55.7477 95.726C55.9904 95.9033 56.2937 95.992 56.6577 95.992C57.2457 95.992 57.731 95.8287 58.1137 95.502C58.4964 95.1753 58.6877 94.6853 58.6877 94.032V93.374L57.6797 93.402ZM64.1578 97L61.3018 89.454H62.8698L64.4378 93.864C64.5031 94.0507 64.5684 94.2607 64.6338 94.494C64.7084 94.7273 64.7738 94.9513 64.8298 95.166C64.8858 95.3807 64.9231 95.5673 64.9418 95.726H64.9978C65.0258 95.5673 65.0678 95.3807 65.1238 95.166C65.1891 94.942 65.2591 94.718 65.3338 94.494C65.4084 94.2607 65.4738 94.0507 65.5298 93.864L67.0978 89.454H68.6658L65.7958 97H64.1578ZM72.7799 89.314C73.7319 89.314 74.4412 89.524 74.9079 89.944C75.3746 90.3547 75.6079 91.0033 75.6079 91.89V97H74.5579L74.2639 95.95H74.2079C73.9932 96.2207 73.7692 96.4447 73.5359 96.622C73.3119 96.7993 73.0506 96.93 72.7519 97.014C72.4626 97.098 72.1079 97.14 71.6879 97.14C71.2399 97.14 70.8339 97.0607 70.4699 96.902C70.1152 96.734 69.8352 96.482 69.6299 96.146C69.4246 95.8007 69.3219 95.3713 69.3219 94.858C69.3219 94.0927 69.6112 93.5093 70.1899 93.108C70.7779 92.7067 71.6692 92.4873 72.8639 92.45L74.1519 92.408V91.988C74.1519 91.428 74.0259 91.036 73.7739 90.812C73.5219 90.588 73.1672 90.476 72.7099 90.476C72.3179 90.476 71.9446 90.532 71.5899 90.644C71.2352 90.756 70.8992 90.8913 70.5819 91.05L70.1059 89.972C70.4606 89.7853 70.8666 89.6313 71.3239 89.51C71.7906 89.3793 72.2759 89.314 72.7799 89.314ZM73.1299 93.402C72.2712 93.4393 71.6739 93.584 71.3379 93.836C71.0112 94.0787 70.8479 94.424 70.8479 94.872C70.8479 95.264 70.9646 95.5487 71.1979 95.726C71.4406 95.9033 71.7439 95.992 72.1079 95.992C72.6959 95.992 73.1812 95.8287 73.5639 95.502C73.9466 95.1753 74.1379 94.6853 74.1379 94.032V93.374L73.1299 93.402ZM83.822 94.298C83.822 94.8953 83.6773 95.404 83.388 95.824C83.0986 96.244 82.6833 96.5707 82.142 96.804C81.6006 97.028 80.9566 97.14 80.21 97.14C79.846 97.14 79.496 97.1167 79.16 97.07C78.824 97.0327 78.5113 96.9767 78.222 96.902C77.9326 96.8273 77.676 96.734 77.452 96.622V95.194C77.8253 95.362 78.264 95.516 78.768 95.656C79.272 95.7867 79.7853 95.852 80.308 95.852C80.756 95.852 81.1293 95.7913 81.428 95.67C81.7266 95.5487 81.9506 95.3807 82.1 95.166C82.2493 94.9513 82.324 94.6993 82.324 94.41C82.324 94.102 82.2446 93.8453 82.086 93.64C81.9366 93.4253 81.6986 93.2293 81.372 93.052C81.0546 92.8653 80.6253 92.6693 80.084 92.464C79.7106 92.324 79.37 92.17 79.062 92.002C78.7633 91.8247 78.4973 91.6193 78.264 91.386C78.04 91.1527 77.8673 90.882 77.746 90.574C77.6246 90.266 77.564 89.9067 77.564 89.496C77.564 88.9453 77.6993 88.474 77.97 88.082C78.25 87.69 78.6326 87.3913 79.118 87.186C79.6033 86.9713 80.168 86.864 80.812 86.864C81.3533 86.864 81.8526 86.92 82.31 87.032C82.7766 87.1347 83.22 87.2793 83.64 87.466L83.164 88.712C82.7813 88.5533 82.394 88.4227 82.002 88.32C81.61 88.2173 81.1993 88.166 80.77 88.166C80.3966 88.166 80.084 88.222 79.832 88.334C79.58 88.446 79.3886 88.6 79.258 88.796C79.1366 88.992 79.076 89.2207 79.076 89.482C79.076 89.79 79.146 90.0467 79.286 90.252C79.426 90.4573 79.65 90.6487 79.958 90.826C80.266 90.994 80.672 91.1807 81.176 91.386C81.736 91.6007 82.212 91.834 82.604 92.086C83.0053 92.338 83.3086 92.6413 83.514 92.996C83.7193 93.3413 83.822 93.7753 83.822 94.298ZM88.6702 97.14C87.9796 97.14 87.3729 97.0047 86.8502 96.734C86.3276 96.4633 85.9216 96.0433 85.6322 95.474C85.3429 94.8953 85.1982 94.1627 85.1982 93.276C85.1982 92.3427 85.3522 91.5867 85.6602 91.008C85.9776 90.4293 86.4022 90.0047 86.9342 89.734C87.4756 89.454 88.0916 89.314 88.7822 89.314C89.2022 89.314 89.5942 89.3607 89.9582 89.454C90.3316 89.538 90.6396 89.636 90.8822 89.748L90.4342 90.952C90.1729 90.8493 89.8929 90.7607 89.5942 90.686C89.3049 90.6113 89.0296 90.574 88.7682 90.574C88.3016 90.574 87.9142 90.6767 87.6062 90.882C87.3076 91.078 87.0836 91.3767 86.9342 91.778C86.7942 92.17 86.7242 92.6647 86.7242 93.262C86.7242 93.8313 86.7989 94.312 86.9482 94.704C87.0976 95.096 87.3169 95.3947 87.6062 95.6C87.9049 95.796 88.2736 95.894 88.7122 95.894C89.1322 95.894 89.5009 95.8473 89.8182 95.754C90.1356 95.6607 90.4342 95.5393 90.7142 95.39V96.678C90.4436 96.8367 90.1496 96.9533 89.8322 97.028C89.5149 97.1027 89.1276 97.14 88.6702 97.14ZM96.2405 89.314C96.3712 89.314 96.5158 89.3233 96.6745 89.342C96.8332 89.3513 96.9638 89.3653 97.0665 89.384L96.9125 90.77C96.8098 90.742 96.6885 90.7187 96.5485 90.7C96.4085 90.6813 96.2778 90.672 96.1565 90.672C95.8765 90.672 95.6058 90.728 95.3445 90.84C95.0925 90.9427 94.8638 91.0967 94.6585 91.302C94.4532 91.498 94.2898 91.7407 94.1685 92.03C94.0565 92.3193 94.0005 92.6507 94.0005 93.024V97H92.5165V89.454H93.6925L93.8885 90.798H93.9445C94.1032 90.5273 94.2945 90.28 94.5185 90.056C94.7425 89.832 94.9992 89.6547 95.2885 89.524C95.5778 89.384 95.8952 89.314 96.2405 89.314ZM99.9688 89.454V97H98.4848V89.454H99.9688ZM99.2408 86.584C99.4648 86.584 99.6608 86.6493 99.8288 86.78C99.9968 86.9107 100.081 87.13 100.081 87.438C100.081 87.7367 99.9968 87.956 99.8288 88.096C99.6608 88.2267 99.4648 88.292 99.2408 88.292C98.9981 88.292 98.7928 88.2267 98.6248 88.096C98.4661 87.956 98.3868 87.7367 98.3868 87.438C98.3868 87.13 98.4661 86.9107 98.6248 86.78C98.7928 86.6493 98.9981 86.584 99.2408 86.584ZM106.086 89.314C106.992 89.314 107.72 89.6407 108.27 90.294C108.83 90.9473 109.11 91.9227 109.11 93.22C109.11 94.0693 108.984 94.788 108.732 95.376C108.48 95.964 108.126 96.4073 107.668 96.706C107.211 96.9953 106.679 97.14 106.072 97.14C105.69 97.14 105.354 97.0933 105.064 97C104.775 96.8973 104.528 96.7667 104.322 96.608C104.126 96.44 103.954 96.2627 103.804 96.076H103.706C103.734 96.244 103.758 96.4447 103.776 96.678C103.795 96.902 103.804 97.1027 103.804 97.28V100.36H102.32V89.454H103.524L103.734 90.462H103.804C103.954 90.2567 104.131 90.0653 104.336 89.888C104.542 89.7107 104.789 89.5707 105.078 89.468C105.368 89.3653 105.704 89.314 106.086 89.314ZM105.736 90.532C105.27 90.532 104.896 90.6253 104.616 90.812C104.336 90.9893 104.131 91.26 104 91.624C103.879 91.9787 103.814 92.4313 103.804 92.982V93.206C103.804 93.7847 103.865 94.2793 103.986 94.69C104.108 95.0913 104.308 95.3993 104.588 95.614C104.878 95.8193 105.27 95.922 105.764 95.922C106.184 95.922 106.525 95.81 106.786 95.586C107.057 95.3527 107.258 95.0307 107.388 94.62C107.519 94.2093 107.584 93.7333 107.584 93.192C107.584 92.3707 107.435 91.722 107.136 91.246C106.838 90.77 106.371 90.532 105.736 90.532Z" fill="white"/>
<defs>
<filter id="filter0_d_11_1005" x="0" y="0" width="159" height="157" filterUnits="userSpaceOnUse" color-interpolation-filters="sRGB">
<feFlood flood-opacity="0" result="BackgroundImageFix"/>
<feColorMatrix in="SourceAlpha" type="matrix" values="0 0 0 0 0 0 0 0 0 0 0 0 0 0 0 0 0 0 127 0" result="hardAlpha"/>
<feOffset dy="15"/>
<feGaussianBlur stdDeviation="12.5"/>
<feComposite in2="hardAlpha" operator="out"/>
<feColorMatrix type="matrix" values="0 0 0 0 0 0 0 0 0 0 0 0 0 0 0 0 0 0 0.25 0"/>
<feBlend mode="normal" in2="BackgroundImageFix" result="effect1_dropShadow_11_1005"/>
<feBlend mode="normal" in="SourceGraphic" in2="effect1_dropShadow_11_1005" result="shape"/>
</filter>
</defs>
</svg>
