<svg width="32" height="32" viewBox="0 0 32 32" fill="none" xmlns="http://www.w3.org/2000/svg">
<path d="M21.334 10.6667C23.4557 10.6667 25.4905 11.5096 26.9908 13.0099C28.4911 14.5102 29.334 16.545 29.334 18.6667V28.0001H24.0007V18.6667C24.0007 17.9595 23.7197 17.2812 23.2196 16.7811C22.7195 16.281 22.0412 16.0001 21.334 16.0001C20.6267 16.0001 19.9485 16.281 19.4484 16.7811C18.9483 17.2812 18.6673 17.9595 18.6673 18.6667V28.0001H13.334V18.6667C13.334 16.545 14.1768 14.5102 15.6771 13.0099C17.1774 11.5096 19.2123 10.6667 21.334 10.6667Z" fill="#79F3AA"/>
<path d="M7.99935 12H2.66602V28H7.99935V12Z" fill="#79F3AA"/>
<path d="M5.33268 8.00008C6.80544 8.00008 7.99935 6.80617 7.99935 5.33341C7.99935 3.86066 6.80544 2.66675 5.33268 2.66675C3.85992 2.66675 2.66602 3.86066 2.66602 5.33341C2.66602 6.80617 3.85992 8.00008 5.33268 8.00008Z" fill="#79F3AA"/>
</svg>
