<svg width="80" height="48" viewBox="0 0 80 48" fill="none" xmlns="http://www.w3.org/2000/svg">
<path fill-rule="evenodd" clip-rule="evenodd" d="M42.2434 7.48488C42.953 5.56024 45.0885 4.57532 47.0132 5.28499C48.9378 5.99466 49.9227 8.13019 49.2131 10.0548L37.9815 40.5152C37.2718 42.4398 35.1363 43.4247 33.2116 42.715C31.287 42.0054 30.3021 39.8699 31.0117 37.9452L42.2434 7.48488ZM25.1624 10.8427C23.7895 9.59771 21.5637 9.59771 20.1909 10.8427L8.02986 21.8713C7.34334 22.4939 7.00013 23.31 7.00023 24.126C6.98977 24.9541 7.3329 25.7852 8.02963 26.417L20.1907 37.4457C21.5635 38.6907 23.7893 38.6907 25.1621 37.4457C26.535 36.2007 26.535 34.1821 25.1621 32.9371L17.2216 25.736C16.2812 24.8832 16.2812 23.4054 17.2216 22.5526L25.1624 15.3513C26.5352 14.1063 26.5352 12.0877 25.1624 10.8427ZM60.1267 37.4457C58.7539 38.6907 56.5281 38.6907 55.1553 37.4457C53.7824 36.2007 53.7824 34.1822 55.1553 32.9372L63.096 25.7359C64.0363 24.8831 64.0363 23.4053 63.096 22.5525L55.1553 15.3513C53.7825 14.1063 53.7825 12.0878 55.1553 10.8428C56.5282 9.59778 58.754 9.59778 60.1268 10.8428L72.2878 21.8714C72.9813 22.5003 73.3245 23.3266 73.3174 24.1509C73.3207 24.9707 72.9775 25.7916 72.2878 26.4171L60.1267 37.4457Z" fill="url(#paint0_linear_11_1046)"/>
<defs>
<linearGradient id="paint0_linear_11_1046" x1="11" y1="24.0001" x2="73" y2="24.0001" gradientUnits="userSpaceOnUse">
<stop stop-color="#2CE07D"/>
<stop offset="1" stop-color="#79F3AA"/>
</linearGradient>
</defs>
</svg>
