<svg width="159" height="157" viewBox="0 0 159 157" fill="none" xmlns="http://www.w3.org/2000/svg">
<g filter="url(#filter0_d_11_1003)">
<rect x="25" y="10" width="109" height="107" rx="8" fill="#33333D"/>
</g>
<path d="M96.3026 52.7214C94.6327 52.7301 93.1813 53.1322 91.9661 53.7268C91.52 52.8437 91.0742 52.0569 90.9956 51.4798C90.908 50.8067 90.8032 50.3957 90.908 49.5913C91.013 48.7869 91.4852 47.6415 91.4763 47.5541C91.4677 47.4667 91.3713 47.0557 90.4097 47.0471C89.448 47.0383 88.6173 47.2307 88.5212 47.4842C88.425 47.7377 88.2414 48.3148 88.119 48.9092C87.9528 49.7837 86.1956 52.9048 85.1902 54.5398C84.8666 53.9017 84.5868 53.3421 84.5255 52.8962C84.4382 52.2231 84.3332 51.8121 84.4382 51.0077C84.5432 50.2033 85.0153 49.0581 85.0065 48.9705C84.9977 48.8831 84.9015 48.4721 83.9398 48.4635C82.9779 48.4547 82.1473 48.6471 82.0513 48.9006C81.9551 49.1542 81.8501 49.7486 81.6491 50.3257C81.4479 50.9029 79.1135 56.1139 78.5015 57.4601C78.2542 58.005 77.9948 58.5443 77.7234 59.0777C77.7234 59.0777 77.7146 59.1039 77.6883 59.1476C77.6031 59.3149 77.5157 59.481 77.4262 59.646V59.6546C77.295 59.8909 77.1551 60.1093 77.0852 60.1093C77.0327 60.1093 76.9365 59.4799 77.1026 58.623C77.4523 56.8132 78.2829 53.9979 78.2743 53.9017C78.2743 53.8492 78.4316 53.3597 77.7322 53.106C77.0501 52.8525 76.8054 53.2721 76.7441 53.2721C76.683 53.2721 76.6391 53.4208 76.6391 53.4208C76.6391 53.4208 77.4 50.2558 75.1878 50.2558C73.8065 50.2558 71.9004 51.7684 70.9562 53.1322C69.8827 53.7164 68.8102 54.3022 67.7387 54.8897C67.223 55.1782 66.6896 55.4668 66.1912 55.7377C66.1562 55.7029 66.1213 55.659 66.0862 55.6241C63.4108 52.7651 58.4623 50.7454 58.6721 46.9072C58.7508 45.5083 59.2316 41.8361 68.1759 37.3772C75.5375 33.7487 81.3956 34.7541 82.4098 36.9836C83.861 40.1662 79.271 46.0766 71.6643 46.9333C68.7617 47.2569 67.2403 46.1377 66.8557 45.7181C66.4535 45.2809 66.3922 45.2546 66.2435 45.3422C65.9988 45.4734 66.1562 45.8668 66.2435 46.0941C66.471 46.6884 67.4064 47.7377 68.9889 48.2537C70.3878 48.7082 73.7889 48.9619 77.907 47.3706C82.5146 45.5869 86.1168 40.6296 85.059 36.4766C84.0009 32.2624 77.0064 30.8722 70.3878 33.2241C66.4535 34.6232 62.1868 36.8263 59.118 39.6941C55.472 43.1038 54.8949 46.0678 55.131 47.3094C55.9792 51.7159 62.0557 54.5837 64.4863 56.7082C64.3638 56.7782 64.25 56.8395 64.154 56.892C62.9387 57.4952 58.3048 59.9169 57.1507 62.4787C55.8393 65.3814 57.3607 67.4625 58.3661 67.7421C61.4874 68.6077 64.6961 67.0515 66.4185 64.4809C68.1408 61.9104 67.931 58.5705 67.1355 57.0405C67.1267 57.0231 67.118 57.0054 67.1004 56.988C67.4152 56.8044 67.7387 56.6121 68.0535 56.4285C68.6321 56.0865 69.218 55.757 69.8109 55.4404C69.5135 56.2536 69.2949 57.2241 69.1901 58.623C69.0588 60.2668 69.732 62.4 70.6151 63.2392C71.0087 63.6067 71.472 63.6154 71.7693 63.6154C72.801 63.6154 73.2645 62.7585 73.7803 61.7443C74.4097 60.5029 74.978 59.0602 74.978 59.0602C74.978 59.0602 74.2698 62.9597 76.1934 62.9597C76.8928 62.9597 77.601 62.0503 77.9158 61.587V61.5956C77.9158 61.5956 77.9332 61.5694 77.9683 61.5082C78.0382 61.3946 78.0819 61.3245 78.0819 61.3245V61.3072C78.3617 60.8175 78.9913 59.7071 79.9267 57.8623C81.1333 55.4842 82.2962 52.5116 82.2962 52.5116C82.2962 52.5116 82.4012 53.2372 82.7595 54.4438C82.9695 55.152 83.4063 55.9301 83.7562 56.682C83.4765 57.0756 83.3015 57.294 83.3015 57.294L83.3103 57.3028C83.0829 57.6 82.8382 57.9234 82.5671 58.2384C81.614 59.3749 80.4776 60.6778 80.3201 61.0536C80.1363 61.4994 80.1802 61.8231 80.5301 62.0854C80.7836 62.2777 81.2381 62.3038 81.7016 62.2777C82.5585 62.2164 83.1617 62.0066 83.4588 61.8756C83.9223 61.7094 84.4644 61.4557 84.9714 61.0798C85.907 60.3891 86.4752 59.4011 86.4228 58.0986C86.3966 57.3816 86.1605 56.6646 85.872 55.9912C85.9595 55.869 86.0381 55.7466 86.1257 55.6241C87.6032 53.4645 88.7486 51.0951 88.7486 51.0951C88.7486 51.0951 88.8536 51.8207 89.2119 53.0274C89.3868 53.6394 89.7453 54.3039 90.06 54.9508C88.6698 56.0788 87.813 57.3902 87.507 58.2471C86.9563 59.8384 87.3845 60.5552 88.1977 60.7213C88.5648 60.8001 89.0895 60.6251 89.4742 60.459C89.9638 60.3017 90.5409 60.0307 91.0918 59.6284C92.0274 58.9378 92.9278 57.9759 92.8753 56.6734C92.849 56.0788 92.6917 55.4929 92.4731 54.9246C93.6534 54.4352 95.1748 54.1641 97.1156 54.3913C101.278 54.8809 102.099 57.4776 101.942 58.5707C101.785 59.6634 100.91 60.258 100.622 60.4416C100.333 60.6253 100.237 60.6864 100.263 60.8175C100.298 61.0099 100.438 61.0012 100.683 60.9662C101.024 60.9051 102.869 60.0831 102.947 58.0721C103.079 55.5017 100.63 52.6952 96.3026 52.7214ZM64.1977 63.5454C62.8162 65.0492 60.8928 65.6175 60.0622 65.1367C59.1705 64.6207 59.5202 62.4 61.2163 60.8089C62.2479 59.8384 63.5769 58.9376 64.46 58.3869C64.661 58.2645 64.9584 58.0897 65.3169 57.8711C65.378 57.8361 65.4131 57.8186 65.4131 57.8186L65.6229 57.6874C66.2435 59.9606 65.6492 61.9629 64.1977 63.5454ZM74.2524 56.7082C73.7715 57.8799 72.7661 60.8788 72.1541 60.7127C71.6295 60.5728 71.3058 58.2996 72.0491 56.0526C72.425 54.9246 73.2206 53.5781 73.6841 53.0537C74.436 52.2142 75.2666 51.9343 75.4676 52.2756C75.7213 52.7214 74.5496 55.9738 74.2524 56.7082ZM82.5497 60.6776C82.3485 60.7826 82.1563 60.8526 82.0687 60.8001C82.0076 60.765 82.1563 60.6251 82.1563 60.6251C82.1563 60.6251 83.1967 59.5061 83.6075 58.9989C83.8438 58.7017 84.1233 58.3521 84.4207 57.9585V58.0721C84.4207 59.4099 83.1266 60.3105 82.5495 60.6776H82.5497ZM88.9496 59.2176C88.8009 59.1126 88.8272 58.7629 89.3255 57.6699C89.5179 57.2415 89.9724 56.5247 90.7507 55.8339C90.8381 56.1137 90.8994 56.3848 90.8906 56.6383C90.8818 58.3258 89.6754 58.9552 88.9496 59.2176Z" fill="#CD6799"/>
<path d="M71.3891 94.298C71.3891 94.8953 71.2444 95.404 70.9551 95.824C70.6658 96.244 70.2504 96.5707 69.7091 96.804C69.1678 97.028 68.5238 97.14 67.7771 97.14C67.4131 97.14 67.0631 97.1167 66.7271 97.07C66.3911 97.0327 66.0784 96.9767 65.7891 96.902C65.4998 96.8273 65.2431 96.734 65.0191 96.622V95.194C65.3924 95.362 65.8311 95.516 66.3351 95.656C66.8391 95.7867 67.3524 95.852 67.8751 95.852C68.3231 95.852 68.6964 95.7913 68.9951 95.67C69.2938 95.5487 69.5178 95.3807 69.6671 95.166C69.8164 94.9513 69.8911 94.6993 69.8911 94.41C69.8911 94.102 69.8118 93.8453 69.6531 93.64C69.5038 93.4253 69.2658 93.2293 68.9391 93.052C68.6218 92.8653 68.1924 92.6693 67.6511 92.464C67.2778 92.324 66.9371 92.17 66.6291 92.002C66.3304 91.8247 66.0644 91.6193 65.8311 91.386C65.6071 91.1527 65.4344 90.882 65.3131 90.574C65.1918 90.266 65.1311 89.9067 65.1311 89.496C65.1311 88.9453 65.2664 88.474 65.5371 88.082C65.8171 87.69 66.1998 87.3913 66.6851 87.186C67.1704 86.9713 67.7351 86.864 68.3791 86.864C68.9204 86.864 69.4198 86.92 69.8771 87.032C70.3438 87.1347 70.7871 87.2793 71.2071 87.466L70.7311 88.712C70.3484 88.5533 69.9611 88.4227 69.5691 88.32C69.1771 88.2173 68.7664 88.166 68.3371 88.166C67.9638 88.166 67.6511 88.222 67.3991 88.334C67.1471 88.446 66.9558 88.6 66.8251 88.796C66.7038 88.992 66.6431 89.2207 66.6431 89.482C66.6431 89.79 66.7131 90.0467 66.8531 90.252C66.9931 90.4573 67.2171 90.6487 67.5251 90.826C67.8331 90.994 68.2391 91.1807 68.7431 91.386C69.3031 91.6007 69.7791 91.834 70.1711 92.086C70.5724 92.338 70.8758 92.6413 71.0811 92.996C71.2864 93.3413 71.3891 93.7753 71.3891 94.298ZM76.1254 89.314C77.0774 89.314 77.7867 89.524 78.2534 89.944C78.72 90.3547 78.9534 91.0033 78.9534 91.89V97H77.9034L77.6094 95.95H77.5534C77.3387 96.2207 77.1147 96.4447 76.8814 96.622C76.6574 96.7993 76.396 96.93 76.0974 97.014C75.808 97.098 75.4534 97.14 75.0334 97.14C74.5854 97.14 74.1794 97.0607 73.8154 96.902C73.4607 96.734 73.1807 96.482 72.9754 96.146C72.77 95.8007 72.6674 95.3713 72.6674 94.858C72.6674 94.0927 72.9567 93.5093 73.5354 93.108C74.1234 92.7067 75.0147 92.4873 76.2094 92.45L77.4974 92.408V91.988C77.4974 91.428 77.3714 91.036 77.1194 90.812C76.8674 90.588 76.5127 90.476 76.0554 90.476C75.6634 90.476 75.29 90.532 74.9354 90.644C74.5807 90.756 74.2447 90.8913 73.9274 91.05L73.4514 89.972C73.806 89.7853 74.212 89.6313 74.6694 89.51C75.136 89.3793 75.6214 89.314 76.1254 89.314ZM76.4754 93.402C75.6167 93.4393 75.0194 93.584 74.6834 93.836C74.3567 94.0787 74.1934 94.424 74.1934 94.872C74.1934 95.264 74.31 95.5487 74.5434 95.726C74.786 95.9033 75.0894 95.992 75.4534 95.992C76.0414 95.992 76.5267 95.8287 76.9094 95.502C77.292 95.1753 77.4834 94.6853 77.4834 94.032V93.374L76.4754 93.402ZM86.2714 94.872C86.2714 95.3667 86.1501 95.782 85.9074 96.118C85.6647 96.454 85.3147 96.7107 84.8574 96.888C84.4001 97.056 83.8494 97.14 83.2054 97.14C82.6734 97.14 82.2161 97.098 81.8334 97.014C81.4601 96.9393 81.1147 96.8273 80.7974 96.678V95.376C81.1334 95.5347 81.5207 95.6793 81.9594 95.81C82.3981 95.9313 82.8274 95.992 83.2474 95.992C83.8074 95.992 84.2087 95.9033 84.4514 95.726C84.7034 95.5487 84.8294 95.3107 84.8294 95.012C84.8294 94.844 84.7827 94.6947 84.6894 94.564C84.5961 94.424 84.4187 94.284 84.1574 94.144C83.9054 93.9947 83.5321 93.8267 83.0374 93.64C82.5614 93.444 82.1554 93.2527 81.8194 93.066C81.4834 92.87 81.2267 92.6413 81.0494 92.38C80.8721 92.1093 80.7834 91.764 80.7834 91.344C80.7834 90.6907 81.0447 90.1913 81.5674 89.846C82.0994 89.4913 82.7994 89.314 83.6674 89.314C84.1247 89.314 84.5541 89.3607 84.9554 89.454C85.3661 89.538 85.7627 89.6687 86.1454 89.846L85.6554 90.98C85.4407 90.8773 85.2167 90.7933 84.9834 90.728C84.7594 90.6533 84.5307 90.5927 84.2974 90.546C84.0734 90.4993 83.8401 90.476 83.5974 90.476C83.1494 90.476 82.8087 90.546 82.5754 90.686C82.3421 90.826 82.2254 91.022 82.2254 91.274C82.2254 91.4513 82.2767 91.6053 82.3794 91.736C82.4914 91.8667 82.6827 91.9973 82.9534 92.128C83.2241 92.2587 83.5927 92.4173 84.0594 92.604C84.5261 92.7813 84.9227 92.9633 85.2494 93.15C85.5854 93.3367 85.8374 93.5653 86.0054 93.836C86.1827 94.1067 86.2714 94.452 86.2714 94.872ZM93.0737 94.872C93.0737 95.3667 92.9523 95.782 92.7097 96.118C92.467 96.454 92.117 96.7107 91.6597 96.888C91.2023 97.056 90.6517 97.14 90.0077 97.14C89.4757 97.14 89.0183 97.098 88.6357 97.014C88.2623 96.9393 87.917 96.8273 87.5997 96.678V95.376C87.9357 95.5347 88.323 95.6793 88.7617 95.81C89.2003 95.9313 89.6297 95.992 90.0497 95.992C90.6097 95.992 91.011 95.9033 91.2537 95.726C91.5057 95.5487 91.6317 95.3107 91.6317 95.012C91.6317 94.844 91.585 94.6947 91.4917 94.564C91.3983 94.424 91.221 94.284 90.9597 94.144C90.7077 93.9947 90.3343 93.8267 89.8397 93.64C89.3637 93.444 88.9577 93.2527 88.6217 93.066C88.2857 92.87 88.029 92.6413 87.8517 92.38C87.6743 92.1093 87.5857 91.764 87.5857 91.344C87.5857 90.6907 87.847 90.1913 88.3697 89.846C88.9017 89.4913 89.6017 89.314 90.4697 89.314C90.927 89.314 91.3563 89.3607 91.7577 89.454C92.1683 89.538 92.565 89.6687 92.9477 89.846L92.4577 90.98C92.243 90.8773 92.019 90.7933 91.7857 90.728C91.5617 90.6533 91.333 90.5927 91.0997 90.546C90.8757 90.4993 90.6423 90.476 90.3997 90.476C89.9517 90.476 89.611 90.546 89.3777 90.686C89.1443 90.826 89.0277 91.022 89.0277 91.274C89.0277 91.4513 89.079 91.6053 89.1817 91.736C89.2937 91.8667 89.485 91.9973 89.7557 92.128C90.0263 92.2587 90.395 92.4173 90.8617 92.604C91.3283 92.7813 91.725 92.9633 92.0517 93.15C92.3877 93.3367 92.6397 93.5653 92.8077 93.836C92.985 94.1067 93.0737 94.452 93.0737 94.872Z" fill="white"/>
<defs>
<filter id="filter0_d_11_1003" x="0" y="0" width="159" height="157" filterUnits="userSpaceOnUse" color-interpolation-filters="sRGB">
<feFlood flood-opacity="0" result="BackgroundImageFix"/>
<feColorMatrix in="SourceAlpha" type="matrix" values="0 0 0 0 0 0 0 0 0 0 0 0 0 0 0 0 0 0 127 0" result="hardAlpha"/>
<feOffset dy="15"/>
<feGaussianBlur stdDeviation="12.5"/>
<feComposite in2="hardAlpha" operator="out"/>
<feColorMatrix type="matrix" values="0 0 0 0 0 0 0 0 0 0 0 0 0 0 0 0 0 0 0.25 0"/>
<feBlend mode="normal" in2="BackgroundImageFix" result="effect1_dropShadow_11_1003"/>
<feBlend mode="normal" in="SourceGraphic" in2="effect1_dropShadow_11_1003" result="shape"/>
</filter>
</defs>
</svg>
